<svg width="107" height="33" viewBox="0 0 107 33" fill="none" xmlns="http://www.w3.org/2000/svg">
<path d="M20.3999 20.2106C20.1953 20.3904 20.1195 20.6607 19.9379 20.8722C19.7573 20.6818 19.7603 20.4308 19.5947 20.2683C19.8342 19.7855 20.1883 19.3844 20.5725 19.0074C21.1521 18.4371 21.7328 17.8678 22.3274 17.3109C23.1595 16.531 23.6294 15.5952 23.6982 14.4748C23.7072 14.3325 23.7291 14.1911 23.7471 14.0497C23.7671 13.8843 23.8558 13.7545 23.9915 13.6583C24.0853 13.591 24.1941 13.5073 24.3138 13.566C24.4235 13.6188 24.3776 13.7429 24.3776 13.8352C24.3806 14.7335 24.3956 15.6318 24.3736 16.53C24.3437 17.7312 23.9387 18.818 23.2233 19.7999C23.1565 19.8922 23.0926 19.9884 23.0278 20.0827C22.8931 20.1904 22.7684 20.3048 22.6895 20.4597C22.3603 20.7126 22.063 20.9973 21.7986 21.3146C21.6809 21.3724 21.5931 21.4579 21.5352 21.5724C21.3886 21.658 21.2678 21.7695 21.182 21.9138C20.8668 22.1129 20.6662 22.4408 20.319 22.6505C20.3001 22.5524 20.2971 22.4822 20.2742 22.4197C20.1494 22.085 20.2322 21.8196 20.5355 21.6099C20.6154 21.5551 20.6662 21.4618 20.7291 21.3858C20.8598 21.3271 20.9506 21.2281 21.0224 21.1098C21.1082 21.079 21.1671 21.0204 21.204 20.9415C21.7128 20.5058 22.2077 20.0567 22.6207 19.5335C23.3081 18.6622 23.6663 17.6735 23.7331 16.5704C23.6842 16.5906 23.6443 16.5935 23.6334 16.6127C23.1066 17.5437 22.2755 18.2198 21.5262 18.9651C21.2499 19.2402 20.9336 19.4797 20.7181 19.8095C20.5804 19.9172 20.4707 20.0442 20.4068 20.2048L20.4009 20.2115L20.3999 20.2106Z" fill="#71785B"/>
<path d="M12.744 13.3993C12.744 13.2166 12.5913 13.0685 12.4018 13.0666C11.6735 13.0618 10.9461 13.057 10.2178 13.0531C9.37579 13.0589 8.53274 13.0858 7.6907 13.0627C6.99132 13.0435 6.38373 12.5636 6.16823 11.9337C5.94475 11.2826 6.1393 10.6074 6.68204 10.1496C7.0442 9.84478 7.47021 9.7159 7.9461 9.7159C9.1114 9.71686 10.2767 9.72263 11.442 9.71206C12.2731 9.70436 12.9415 9.05327 12.9525 8.25214C12.9585 7.78186 12.9565 7.31253 12.9565 6.84224C12.9575 5.7449 12.9425 6.18634 12.9635 5.08996C12.9784 4.2821 13.5351 3.60793 14.3223 3.3723C15.0975 3.14052 15.9156 3.39057 16.4244 4.01763C16.8295 4.5158 16.8954 5.07842 16.7537 5.67758C16.7407 5.7324 16.7108 5.78433 16.6938 5.83819C16.607 6.1094 16.6569 6.27386 16.8435 6.34599C17.034 6.41908 17.2166 6.32579 17.3134 6.07285C17.6446 5.20633 17.5409 4.38405 16.9662 3.64447C16.4005 2.9174 15.6163 2.57502 14.6835 2.66062C13.2997 2.78757 12.3429 3.80701 12.298 5.14863C12.284 5.56121 12.294 5.97476 12.294 6.3883C12.294 7.45679 12.3 6.9865 12.296 8.05595C12.293 8.80706 11.9119 9.13309 11.2026 9.10135C11.0699 9.09558 10.9362 9.09943 10.8035 9.09943C9.79781 9.10039 8.79215 9.09751 7.78648 9.10424C6.71795 9.11193 5.80407 9.78322 5.51774 10.7603C5.22741 11.7538 5.62748 12.7665 6.52739 13.3311C6.96338 13.6042 7.44427 13.7167 7.95708 13.7206C9.00665 13.7273 10.0562 13.734 11.1058 13.7408C11.5378 13.7379 11.9698 13.735 12.4018 13.7311C12.5913 13.7302 12.744 13.5811 12.744 13.3984" fill="#71785B"/>
<path d="M26.9689 13.7239C27.9456 13.7239 28.9213 13.7239 29.8981 13.7239C30.4907 13.7239 31.0374 13.5835 31.5203 13.2382C32.6866 12.4054 32.7944 10.7916 31.8316 9.81829C31.3587 9.34127 30.785 9.09411 30.0926 9.09795C28.9383 9.10468 27.785 9.10276 26.6307 9.09891C25.9133 9.09699 25.611 8.8027 25.5941 8.1064C25.5911 7.97849 25.5931 7.84962 25.5931 7.72171C25.5931 6.33874 25.602 6.4955 25.5931 5.11252C25.5831 3.68243 24.2711 2.54469 22.8285 2.65145C21.4217 2.75531 20.1946 3.96325 20.446 5.58089C20.4769 5.77708 20.5288 5.97328 20.6296 6.15024C20.7403 6.34643 20.8979 6.41471 21.0626 6.34162C21.2412 6.26372 21.2811 6.11946 21.2392 5.94923C21.2052 5.81074 21.1534 5.67706 21.1214 5.53761C20.866 4.41238 21.745 3.32562 22.9362 3.29004C24.0337 3.25734 24.9356 4.07097 24.9476 5.1433C24.9645 6.65419 24.9535 6.6263 24.9535 8.13718C24.9535 8.30837 24.9466 8.47956 24.9915 8.64786C25.1591 9.27972 25.7228 9.71058 26.4231 9.71539C27.5914 9.72308 28.7607 9.71827 29.929 9.71539C30.4877 9.71346 30.9786 9.87407 31.3607 10.2799C31.8446 10.7954 31.9483 11.3965 31.6829 12.0293C31.4176 12.666 30.9017 13.0334 30.1844 13.0613C29.4461 13.0901 28.7048 13.0699 27.9656 13.0709C27.2143 13.0709 26.463 13.0718 25.7118 13.0718C25.5242 13.0718 25.3716 13.2199 25.3736 13.4008C25.3746 13.5806 25.5262 13.7249 25.7128 13.7249H26.9689V13.721V13.7239Z" fill="#71785B"/>
<path d="M14.0356 11.6951C12.0971 11.6903 10.1596 11.697 8.22109 11.698C8.0884 11.698 7.95471 11.6999 7.82202 11.6903C7.63046 11.6759 7.51972 11.5634 7.51972 11.3835C7.51972 11.2008 7.64044 11.0979 7.82601 11.0777C7.94274 11.0652 8.06246 11.0681 8.18019 11.0681C9.24572 11.0681 10.3102 11.071 11.3758 11.0719C13.1227 11.0738 14.3768 9.88129 14.3848 8.20018C14.3918 6.78835 14.3858 6.91626 14.3878 5.50443C14.3878 5.3621 14.3818 5.21688 14.4068 5.07839C14.4516 4.8293 14.6562 4.67061 14.9016 4.67157C15.1301 4.67157 15.3077 4.81295 15.3745 5.04857C15.3865 5.08897 15.3795 5.13417 15.3895 5.17552C15.4483 5.41884 15.578 5.53329 15.7666 5.5102C15.9711 5.4852 16.0829 5.31401 16.0609 5.05627C15.9941 4.26572 15.0632 3.78293 14.3409 4.16474C13.8889 4.40421 13.7293 4.78794 13.7323 5.26977C13.7403 6.69602 13.7333 6.58254 13.7363 8.00783C13.7363 8.23672 13.7323 8.46562 13.6804 8.68874C13.4719 9.57834 12.9012 10.1448 11.9914 10.3727C11.7379 10.4362 11.4626 10.4276 11.1972 10.4295C10.0878 10.4372 8.97734 10.4276 7.86791 10.4439C7.24835 10.4526 6.84229 10.8565 6.85426 11.4056C6.86623 11.9346 7.2673 12.3029 7.86791 12.3289C8.03053 12.3356 8.19316 12.326 8.35578 12.3308C8.70996 12.3414 9.06514 12.3058 9.41832 12.3568C10.4509 12.2981 11.4855 12.3443 12.5191 12.3328C13.0808 12.327 13.6435 12.3193 14.2032 12.3491C14.5664 12.3693 14.8936 12.4799 15.169 12.6549H16.1178C15.6329 12.074 14.8816 11.697 14.0346 11.6942" fill="#8F724D"/>
<path d="M23.8362 12.3378C24.8428 12.334 25.8485 12.3369 26.8552 12.3369V12.335C27.8469 12.335 28.8376 12.335 29.8293 12.335C29.9919 12.335 30.1535 12.3398 30.3142 12.2994C30.8629 12.1609 31.1742 11.6242 31.0046 11.102C30.8609 10.6606 30.5107 10.4355 29.941 10.4346C28.8316 10.4317 27.7212 10.4346 26.6117 10.4336C26.3454 10.4336 26.08 10.4278 25.8206 10.3547C24.8059 10.0691 24.1704 9.23913 24.1674 8.17545C24.1634 6.6636 24.1734 6.69149 24.1654 5.17965C24.1614 4.40737 23.5089 3.90727 22.7377 4.06596C22.2379 4.16886 21.8478 4.62569 21.8478 5.10848C21.8478 5.34506 21.9605 5.50279 22.1501 5.50856C22.3616 5.51433 22.4763 5.40469 22.4973 5.2008C22.5033 5.14406 22.5142 5.08732 22.5322 5.03346C22.613 4.7988 22.7906 4.66993 23.0221 4.67281C23.2485 4.67666 23.4411 4.81707 23.499 5.05077C23.5289 5.17291 23.5249 5.30467 23.5249 5.43258C23.5259 6.88769 23.5259 6.80209 23.5249 8.2572C23.5249 8.45724 23.5329 8.65536 23.5788 8.85251C23.8831 10.1614 25.0164 11.0558 26.4122 11.0693C27.5216 11.0799 28.6321 11.0712 29.7415 11.0722C29.8592 11.0722 29.9799 11.0655 30.0957 11.0837C30.2782 11.1126 30.391 11.2213 30.378 11.4069C30.367 11.5684 30.2613 11.6694 30.0937 11.6848C29.947 11.6992 29.7984 11.6954 29.6507 11.6954C27.7561 11.6964 25.8625 11.6983 23.9689 11.6944C23.6386 11.6944 23.3214 11.7425 23.0101 11.8397C22.4933 12.0012 22.0613 12.3109 21.749 12.7062L22.6539 12.711C22.9792 12.4667 23.3743 12.3407 23.8372 12.3388" fill="#8F724D"/>
<path d="M31.0502 5.12081C30.4377 5.28719 30.1074 5.8902 30.3179 6.47012C30.4167 6.74229 30.6043 6.93368 30.9066 6.99619C31.0483 7.02601 31.178 6.98946 31.2478 6.85866C31.3126 6.73748 31.3086 6.60861 31.2189 6.49609C31.1839 6.45281 31.1261 6.42588 31.0832 6.38741C30.8188 6.14987 30.8906 5.85269 31.2378 5.74498C31.6199 5.62668 32.0479 5.89693 32.1248 6.30567C32.2574 7.01062 31.6588 7.58189 30.9265 7.45013C30.4207 7.35973 30.1204 7.04716 29.9688 6.599C29.6924 5.78152 28.8384 5.25641 27.9015 5.26988C27.3688 5.27084 26.8839 5.4151 26.4579 5.72959C26.3132 5.83634 26.1965 5.95944 26.1845 6.14794C26.1736 6.32682 26.1945 6.51148 26.3671 6.599C26.5656 6.69902 26.5986 6.47301 26.6854 6.38453C27.4316 5.6161 29.0429 5.78537 29.3592 6.85385C29.437 7.11545 29.5856 7.35011 29.7822 7.54823C30.2741 8.04641 30.8796 8.19355 31.5641 8.05025C32.2285 7.9108 32.5947 7.48091 32.7453 6.86251C32.7932 6.66728 32.7942 6.46628 32.7762 6.2672C32.7014 5.45165 31.8674 4.89769 31.0502 5.11985" fill="#71785B"/>
<path d="M5.37385 5.56916C5.02366 6.13851 5.02266 6.73767 5.33294 7.31855C5.62427 7.86193 6.1261 8.09948 6.98411 8.10525C7.30238 8.11102 7.7663 7.92348 8.13545 7.53494C8.33698 7.3224 8.46767 7.06754 8.56844 6.79633C8.75601 6.28854 9.15408 6.02406 9.68685 5.94039C10.3304 5.83941 10.8831 6.00386 11.3111 6.50108C11.4607 6.67515 11.5485 6.6588 11.6593 6.46069C11.787 6.23276 11.7461 6.00675 11.5326 5.80478C11.327 5.61147 11.0726 5.50087 10.8092 5.40182C9.88838 5.05752 8.37688 5.3345 7.92693 6.61264C7.87505 6.75882 7.79922 6.90308 7.70444 7.02715C7.40713 7.41761 6.86639 7.57053 6.39847 7.41088C5.98144 7.26854 5.74499 6.87808 5.77691 6.38567C5.79786 6.06926 5.97046 5.85191 6.27775 5.75285C6.52917 5.67206 6.79954 5.7365 6.91627 5.90673C7.035 6.07888 7.00107 6.19717 6.74866 6.43664C6.61896 6.55975 6.5581 6.69054 6.65488 6.85404C6.74167 7.00118 6.92525 7.04831 7.12379 6.96079C7.43108 6.82422 7.59071 6.57706 7.63361 6.25968C7.70245 5.75285 7.43407 5.33161 6.93323 5.15273C6.41743 4.96807 5.61928 5.16811 5.37285 5.56916" fill="#71785B"/>
<path d="M18.5809 7.43858C18.4203 7.24334 18.2806 7.05196 18.12 6.87885C17.8446 6.58359 17.5912 6.54705 17.1572 6.73747C17.2959 6.86827 17.4057 6.96925 17.5134 7.07119C18.0731 7.60688 18.4383 8.24739 18.5889 8.99274C18.6647 9.36782 18.6707 9.75251 18.6697 10.1334C18.6697 10.3055 18.7256 10.3757 18.9132 10.3719C19.2085 10.3671 19.2254 10.3613 19.2304 10.0583C19.2324 9.94774 19.2324 9.83618 19.2344 9.72558C19.2484 8.64844 19.6604 7.73671 20.4685 6.99233C20.5244 6.94136 20.5843 6.8952 20.6382 6.84326C20.7339 6.7519 20.687 6.68169 20.5853 6.65188C20.292 6.56436 20.0246 6.61725 19.8141 6.83845C19.6764 6.98271 19.5627 7.14909 19.432 7.30009C19.3821 7.35779 19.3711 7.47512 19.2294 7.43184V6.95482C19.2294 6.48646 19.2304 6.01809 19.2294 5.54973C19.2294 5.46702 19.2614 5.34969 19.1616 5.31891C19.0309 5.27852 18.8782 5.27179 18.7475 5.3218C18.6288 5.36796 18.6747 5.49395 18.6737 5.58627C18.6697 6.09118 18.6737 6.5961 18.6697 7.10101C18.6697 7.21161 18.7126 7.34048 18.5819 7.43473" fill="#8F724D"/>
<path d="M18.1248 10.1088C18.1577 9.55484 17.8993 9.14417 17.3905 8.89509C17.2269 8.81526 17.159 8.73832 17.2419 8.57002C17.2728 8.50654 17.2957 8.43634 17.3087 8.36709C17.4524 7.62271 16.8398 6.96777 16.0865 7.06298C15.7912 7.10049 15.5548 7.23706 15.4021 7.48518C15.3213 7.61694 15.3203 7.76216 15.434 7.88142C15.5178 7.96893 15.6296 8.02183 15.7533 7.96605C15.8321 7.93143 15.9069 7.87949 15.9668 7.81987C16.1135 7.67368 16.2701 7.65926 16.4437 7.76409C16.6273 7.87469 16.7021 8.07376 16.6402 8.28342C16.5604 8.55463 16.3399 8.73448 16.0267 8.75948C15.8351 8.77391 15.6426 8.76237 15.45 8.76333C15.0988 8.76621 15.0958 8.76525 15.009 9.08743C14.8374 9.72218 14.5281 10.279 14.0323 10.7358C13.9615 10.8012 13.8627 10.8522 13.8447 10.9936C14.0173 11.0051 14.1939 10.9955 14.3565 11.034C14.603 11.0936 14.7387 10.9849 14.8723 10.8109C15.1557 10.4416 15.3901 10.0463 15.5358 9.60965C15.5917 9.44327 15.6845 9.38557 15.8571 9.39038C16.1384 9.39903 16.4198 9.3798 16.7001 9.39615C17.0663 9.41827 17.3636 9.63562 17.4474 9.91068C17.5312 10.1848 17.2937 10.4906 17.0144 10.4704C16.8667 10.4598 16.7879 10.3492 16.6871 10.2675C16.5455 10.154 16.3928 10.1357 16.2502 10.2684C16.1105 10.3983 16.1214 10.5464 16.2152 10.6955C16.2851 10.807 16.3838 10.8936 16.4966 10.9638C17.1521 11.3706 18.0779 10.8897 18.1238 10.1098" fill="#71785B"/>
<path d="M21.9738 7.86473C22.1324 7.98591 22.284 8.03111 22.4506 7.89647C22.5993 7.77625 22.5973 7.58583 22.4457 7.40117C22.282 7.20209 22.0655 7.09053 21.8031 7.06168C21.0599 6.97993 20.4473 7.59641 20.6129 8.33213C20.6907 8.67932 20.6458 8.83608 20.3196 9.01977C19.8756 9.26982 19.723 9.71126 19.7948 10.2046C19.8567 10.6249 20.1201 10.898 20.5241 11.0442C20.9641 11.2039 21.4879 11.0356 21.6924 10.6807C21.7972 10.498 21.7722 10.3258 21.6166 10.2287C21.43 10.1123 21.2933 10.1998 21.1467 10.3239C20.9272 10.5105 20.7835 10.5105 20.6039 10.3643C20.4204 10.2152 20.3814 9.99882 20.5082 9.78628C20.6618 9.52757 20.9122 9.41312 21.2055 9.39485C21.4859 9.3785 21.7672 9.39677 22.0476 9.38427C22.2272 9.37561 22.316 9.44871 22.3668 9.60643C22.4776 9.94881 22.6622 10.2556 22.8517 10.5634C23.0632 10.9067 23.3107 11.1481 23.7706 11.0106C23.8524 10.9865 23.9452 10.9971 24.033 10.9923C24.0479 10.9673 24.0639 10.9423 24.0789 10.9182C23.4234 10.3931 23.0343 9.72088 22.8517 8.93706C22.8178 8.7928 22.734 8.7601 22.6013 8.76203C22.3648 8.76587 22.1274 8.77068 21.8919 8.75818C21.5817 8.74183 21.3522 8.56391 21.2614 8.30039C21.1995 8.11959 21.2415 7.9609 21.3702 7.8253C21.5388 7.64738 21.7004 7.65507 21.9748 7.86377" fill="#71785B"/>
<path d="M27.5653 2.57912C27.4465 2.49545 27.3079 2.56951 27.1881 2.6224C27.0355 2.68972 26.9217 2.80128 26.8659 2.95805C26.818 3.09269 26.7861 3.2331 26.7302 3.3639C26.6155 3.62934 26.6574 3.9621 26.362 4.15444C26.2892 4.20157 26.3461 4.2862 26.369 4.34968C26.4119 4.46893 26.4598 4.58722 26.5127 4.72475C27.693 4.45258 28.8213 4.39007 29.8729 5.04501C30.0176 5.13541 30.0994 5.06136 30.1672 4.96903C30.25 4.85651 30.4935 4.76995 30.3318 4.59684C30.1981 4.45354 30.258 4.33814 30.2949 4.21022C30.3698 3.94959 30.4635 3.69474 30.5314 3.43314C30.5573 3.33024 30.6691 3.21483 30.5703 3.11481C30.4605 3.00229 30.3229 3.10423 30.1952 3.11385C30.0545 3.12443 29.9976 3.21579 29.9308 3.30716C29.817 3.46296 29.7821 3.64569 29.7262 3.82168C29.6175 4.16791 29.6155 4.16695 29.2474 4.06212C29.2194 4.05442 29.1915 4.04384 29.1625 4.04C28.956 4.00826 28.8972 3.90632 28.965 3.71205C29.0638 3.4293 29.1496 3.14174 29.2284 2.85322C29.2833 2.65318 29.2194 2.58874 29.0149 2.62144C28.6807 2.6753 28.519 2.89553 28.4283 3.18982C28.3574 3.41776 28.3734 3.72263 28.1718 3.84861C27.9593 3.98037 27.654 3.88323 27.3907 3.90151C27.3647 3.90343 27.3358 3.8842 27.2989 3.87169C27.3368 3.54567 27.4914 3.24849 27.5643 2.93112C27.5912 2.81282 27.7069 2.67914 27.5662 2.58008" fill="#8F724D"/>
<path d="M8.31556 4.13623C8.1709 3.9487 8.16391 3.71115 8.07612 3.50245C7.97236 3.25625 7.79677 3.10333 7.52041 3.07256C7.34182 3.05236 7.28196 3.11776 7.33184 3.29568C7.41565 3.59766 7.51542 3.8958 7.60521 4.19682C7.64512 4.3305 7.69101 4.44976 7.57229 4.59306C7.39969 4.80272 7.68403 4.86811 7.76185 4.99699C7.83268 5.11432 7.93345 5.1047 8.05916 5.0268C8.97803 4.46034 9.97771 4.43437 11.0053 4.64595C11.4004 4.7277 11.4563 4.70173 11.5451 4.32762C11.566 4.23914 11.58 4.15643 11.4832 4.1045C11.3336 4.02371 11.3256 3.87368 11.2827 3.74C11.2099 3.50918 11.144 3.27548 11.0682 3.04467C11.0093 2.8629 10.9105 2.70421 10.722 2.6215C10.5883 2.56284 10.4347 2.48974 10.3079 2.5965C10.2002 2.6869 10.3099 2.81096 10.3359 2.91387C10.3908 3.13507 10.4726 3.34953 10.5364 3.56785C10.5663 3.67075 10.6322 3.77462 10.5524 3.89676C10.3319 3.89676 10.1104 3.88811 9.89091 3.89965C9.7223 3.9083 9.65446 3.82367 9.61355 3.6871C9.5487 3.46879 9.48984 3.24663 9.40803 3.03409C9.31225 2.78596 9.1167 2.64458 8.84034 2.62246C8.69768 2.61092 8.60789 2.65516 8.66076 2.82058C8.71763 2.99754 8.76452 3.17642 8.81939 3.35434C8.95375 3.78392 8.78547 4.04519 8.31457 4.13816" fill="#8F724D"/>
<path d="M29.0268 7.64747C29.0268 7.0762 28.5279 6.58187 27.9343 6.56552C27.3197 6.54821 26.8009 7.02907 26.786 7.63016C26.771 8.2322 27.2639 8.72076 27.8934 8.72846C28.512 8.73519 29.0268 8.24374 29.0268 7.64747ZM27.3996 7.64651C27.4016 7.38395 27.635 7.15891 27.9054 7.16083C28.1758 7.16179 28.4112 7.39165 28.4062 7.65035C28.4022 7.91387 28.1698 8.13699 27.9004 8.13603C27.627 8.13507 27.3976 7.91098 27.3996 7.64651Z" fill="#8F724D"/>
<path d="M8.88679 7.64962C8.89378 8.2632 9.38863 8.7383 10.0152 8.73253C10.6347 8.72676 11.1206 8.24108 11.1136 7.63519C11.1066 7.02738 10.5938 6.54651 9.97327 6.56574C9.37366 6.58402 8.87981 7.07642 8.88679 7.64962ZM10.4991 7.63327C10.511 7.90255 10.2905 8.13529 10.0192 8.14106C9.7468 8.14683 9.50236 7.92564 9.49738 7.66981C9.49338 7.40245 9.71387 7.17067 9.98125 7.16106C10.2546 7.15144 10.4871 7.36398 10.4991 7.63327Z" fill="#8F724D"/>
<path d="M12.9431 21.6352C12.2896 20.8091 11.8446 19.8849 11.6202 18.8885C11.5503 18.575 11.2371 18.3644 10.9088 18.4076L10.8799 18.4115L10.8839 18.4394C11.0684 19.731 11.6032 20.9659 12.4303 22.0113C12.8124 22.494 13.2594 22.9355 13.7572 23.324C13.2554 23.7145 12.8074 24.1579 12.4253 24.6416C12.2627 24.8465 12.11 25.0609 11.9704 25.2792L11.9554 25.3033L11.9803 25.3177C12.2627 25.485 12.6378 25.4129 12.8344 25.1523C12.8683 25.1071 12.9032 25.0628 12.9381 25.0186C13.5048 24.3021 14.2341 23.6789 15.0492 23.2154C15.3106 24.1829 15.3565 25.1677 15.1849 26.1409L15.1799 26.1688L15.8154 26.2727L15.8204 26.2448C16.008 25.1792 15.9571 24.103 15.6698 23.0461C15.4104 22.0901 14.9445 21.164 14.3239 20.3677L14.3059 20.3446L14.282 20.3619C14.0176 20.5542 13.9488 20.9158 14.1274 21.1851C14.4227 21.6314 14.6661 22.1094 14.8527 22.6066C14.6601 22.7114 14.4726 22.8239 14.293 22.9413C13.7832 22.5614 13.3292 22.1219 12.9431 21.6343" fill="#71785B"/>
<path d="M9.52454 18.4023L9.49561 18.4052L9.4986 18.433C9.69015 20.0199 10.3267 21.5356 11.3393 22.8147C11.6257 23.1773 11.9449 23.5216 12.2881 23.8399L12.3091 23.8592L12.755 23.4119L12.7341 23.3927C12.4148 23.0965 12.1175 22.7762 11.8511 22.4387C11.031 21.4019 10.4674 20.1796 10.2229 18.9053C10.1621 18.586 9.85377 18.3648 9.52354 18.4023" fill="#71785B"/>
<path d="M8.1427 18.3977L8.11377 18.4006L8.11676 18.4285C8.31331 20.3106 9.0496 22.1052 10.2468 23.618C10.59 24.0518 10.9741 24.4634 11.3882 24.8423L11.4091 24.8615L11.8521 24.4105L11.8311 24.3913C11.442 24.0354 11.0809 23.6488 10.7586 23.241C9.75596 21.9744 9.08851 20.477 8.83011 18.9123C8.77723 18.591 8.47393 18.3641 8.1417 18.3968" fill="#71785B"/>
<path d="M15.251 27.7455C13.1429 27.1579 11.3061 26.0278 9.93731 24.4794C8.57148 22.9339 7.70149 21.0057 7.42214 18.9014C7.38024 18.5898 7.0939 18.3667 6.76966 18.3917L6.74072 18.3936L6.74272 18.4215C6.94425 20.77 7.8302 22.9349 9.30577 24.6804C10.7744 26.4183 12.7707 27.6772 15.0784 28.3216C15.5214 28.4456 16.0262 28.638 16.4283 28.838C16.6717 28.9592 16.8233 29.1968 16.8233 29.4593V28.361C16.1399 28.0061 15.4495 27.8003 15.252 27.7445" fill="#71785B"/>
<path d="M28.3488 18.4334L28.3517 18.4055L28.3228 18.4016C27.9916 18.3641 27.6853 18.5853 27.6234 18.9046C27.379 20.1799 26.8163 21.4013 25.9962 22.438C25.7298 22.7746 25.4325 23.0959 25.1123 23.3921L25.0913 23.4113L25.5373 23.8595L25.5582 23.8402C25.9014 23.5219 26.2207 23.1776 26.508 22.815C27.5207 21.5359 28.1562 20.0202 28.3478 18.4334" fill="#71785B"/>
<path d="M26.459 24.8431C26.8731 24.4652 27.2572 24.0526 27.6004 23.6188C28.7976 22.106 29.5349 20.3114 29.7315 18.4293L29.7344 18.4014L29.7055 18.3985C29.3733 18.3668 29.07 18.5928 29.0171 18.914C28.7587 20.4788 28.0923 21.9752 27.0886 23.2428C26.7663 23.6506 26.4052 24.0372 26.0161 24.393L25.9951 24.4123L26.4381 24.8633L26.459 24.8441V24.8431Z" fill="#71785B"/>
<path d="M24.9096 25.0183C24.9445 25.0625 24.9794 25.1077 25.0134 25.152C25.2089 25.4126 25.584 25.4847 25.8664 25.3174L25.8913 25.303L25.8754 25.2789C25.7367 25.0616 25.583 24.8461 25.4214 24.6413C25.0383 24.1575 24.5903 23.7151 24.0895 23.3247C24.5883 22.9361 25.0343 22.4947 25.4164 22.0119C26.2435 20.9675 26.7783 19.7316 26.9628 18.44L26.9668 18.4121L26.9379 18.4083C26.6087 18.365 26.2974 18.5756 26.2265 18.8891C26.0021 19.8855 25.5581 20.8097 24.9036 21.6349C24.5175 22.1225 24.0636 22.562 23.5537 22.9419C23.3752 22.8246 23.1866 22.712 22.994 22.6072C23.1806 22.11 23.424 21.632 23.7194 21.1848C23.8979 20.9146 23.8301 20.5529 23.5647 20.3616L23.5418 20.3442L23.5238 20.3664C22.9032 21.1627 22.4383 22.0888 22.1779 23.0448C21.8906 24.1027 21.8397 25.1789 22.0273 26.2435L22.0323 26.2714L22.6678 26.1676L22.6628 26.1397C22.4912 25.1664 22.5371 24.1816 22.7985 23.2141C23.6136 23.6786 24.3429 24.3018 24.9096 25.0173" fill="#71785B"/>
<path d="M21.4195 28.8393C21.8215 28.6392 22.3264 28.4469 22.7693 28.3228C25.077 27.6794 27.0734 26.4196 28.542 24.6817C30.0175 22.9352 30.9035 20.7713 31.105 18.4227L31.107 18.3948L31.0781 18.3929C30.7538 18.3679 30.4675 18.591 30.4266 18.9026C30.1462 21.006 29.2763 22.9352 27.9114 24.4807C26.5426 26.0291 24.7049 27.1591 22.5967 27.7467C22.3982 27.8016 21.7088 28.0074 21.0254 28.3632V29.4615C21.0254 29.199 21.177 28.9614 21.4205 28.8402" fill="#71785B"/>
<path d="M32.7057 17.5601H25.3677V16.8888H32.125C32.4453 16.8888 32.7057 17.1398 32.7057 17.4485V17.5601Z" fill="#71785B"/>
<path d="M5.19727 17.5601H12.7059V16.8888H5.77792C5.45766 16.8888 5.19727 17.1398 5.19727 17.4485V17.5601Z" fill="#71785B"/>
<path d="M31.9577 15.3194C31.9597 15.1549 31.9587 14.9962 31.9577 14.8308V14.7279C31.9577 14.6327 31.9577 14.5346 31.9577 14.4298C31.9597 14.1759 31.7681 14.2288 31.6145 14.2269C31.4708 14.2249 31.3052 14.1951 31.3052 14.4202C31.3062 14.6894 31.3062 14.9357 31.3062 15.177C31.3042 15.3415 31.3062 15.5002 31.3062 15.6656C31.3062 15.6993 31.3062 15.7339 31.3062 15.7676C31.3062 15.8628 31.3062 15.9609 31.3062 16.0657C31.3042 16.3206 31.4957 16.2667 31.6484 16.2696C31.792 16.2715 31.9587 16.3013 31.9577 16.0763C31.9567 15.807 31.9567 15.5608 31.9567 15.3194" fill="#8F724D"/>
<path d="M30.4865 15.3194C30.4885 15.1549 30.4875 14.9962 30.4865 14.8308V14.7279C30.4865 14.6327 30.4865 14.5346 30.4865 14.4298C30.4885 14.1759 30.2969 14.2288 30.1433 14.2269C29.9996 14.2249 29.834 14.1951 29.834 14.4202C29.835 14.6894 29.835 14.9357 29.835 15.177C29.833 15.3415 29.835 15.5002 29.835 15.6656V15.7676C29.835 15.8628 29.835 15.9609 29.835 16.0657C29.833 16.3206 30.0245 16.2667 30.1772 16.2696C30.3209 16.2715 30.4875 16.3013 30.4865 16.0763C30.4855 15.807 30.4855 15.5608 30.4855 15.3194" fill="#8F724D"/>
<path d="M29.0153 15.3194C29.0173 15.1549 29.0163 14.9962 29.0153 14.8308V14.7279C29.0153 14.6327 29.0153 14.5346 29.0153 14.4298C29.0173 14.1759 28.8257 14.2288 28.6721 14.2269C28.5284 14.2249 28.3628 14.1951 28.3628 14.4202C28.3638 14.6894 28.3638 14.9357 28.3638 15.177C28.3618 15.3415 28.3638 15.5002 28.3638 15.6656C28.3638 15.6993 28.3638 15.7339 28.3638 15.7676C28.3638 15.8628 28.3638 15.9609 28.3638 16.0657C28.3618 16.3206 28.5534 16.2667 28.706 16.2696C28.8497 16.2715 29.0163 16.3013 29.0153 16.0763C29.0143 15.807 29.0143 15.5608 29.0143 15.3194" fill="#8F724D"/>
<path d="M27.5436 15.3194C27.5456 15.1549 27.5446 14.9962 27.5436 14.8308V14.7279C27.5436 14.6327 27.5436 14.5346 27.5436 14.4298C27.5456 14.1759 27.354 14.2288 27.2004 14.2269C27.0567 14.2249 26.8911 14.1951 26.8911 14.4202C26.8921 14.6894 26.8921 14.9357 26.8921 15.177C26.8901 15.3415 26.8921 15.5002 26.8921 15.6656C26.8921 15.6993 26.8921 15.7339 26.8921 15.7676C26.8921 15.8628 26.8921 15.9609 26.8921 16.0657C26.8901 16.3206 27.0817 16.2667 27.2343 16.2696C27.378 16.2715 27.5446 16.3013 27.5436 16.0763C27.5426 15.807 27.5426 15.5608 27.5426 15.3194" fill="#8F724D"/>
<path d="M26.0719 15.3194C26.0739 15.1549 26.0729 14.9962 26.0719 14.8308V14.7279C26.0719 14.6327 26.0719 14.5346 26.0719 14.4298C26.0739 14.1759 25.8824 14.2288 25.7287 14.2269C25.5851 14.2249 25.4194 14.1951 25.4194 14.4202C25.4194 14.6894 25.4204 14.9357 25.4204 15.177C25.4184 15.3415 25.4204 15.5002 25.4204 15.6656C25.4204 15.6993 25.4204 15.7339 25.4204 15.7676C25.4204 15.8628 25.4204 15.9609 25.4204 16.0657C25.4184 16.3206 25.61 16.2667 25.7626 16.2696C25.9063 16.2715 26.0729 16.3013 26.0719 16.0763C26.0709 15.807 26.0709 15.5608 26.0709 15.3194" fill="#8F724D"/>
<path d="M12.7052 15.3194C12.7072 15.1549 12.7062 14.9962 12.7052 14.8308V14.7279C12.7052 14.6327 12.7052 14.5346 12.7052 14.4298C12.7072 14.1759 12.5157 14.2288 12.362 14.2269C12.2184 14.2249 12.0527 14.1951 12.0527 14.4202C12.0527 14.6894 12.0537 14.9357 12.0537 15.177C12.0517 15.3415 12.0537 15.5002 12.0537 15.6656C12.0537 15.6993 12.0537 15.7339 12.0537 15.7676C12.0537 15.8628 12.0537 15.9609 12.0537 16.0657C12.0517 16.3206 12.2433 16.2667 12.3959 16.2696C12.5396 16.2715 12.7062 16.3013 12.7052 16.0763C12.7042 15.807 12.7042 15.5608 12.7042 15.3194" fill="#8F724D"/>
<path d="M11.2335 15.3194C11.2355 15.1549 11.2345 14.9962 11.2335 14.8308V14.7279C11.2335 14.6327 11.2335 14.5346 11.2335 14.4298C11.2355 14.1759 11.044 14.2288 10.8903 14.2269C10.7467 14.2249 10.5811 14.1951 10.5811 14.4202C10.5811 14.6894 10.5821 14.9357 10.5821 15.177C10.5801 15.3415 10.5821 15.5002 10.5821 15.6656C10.5821 15.6993 10.5821 15.7339 10.5821 15.7676C10.5821 15.8628 10.5821 15.9609 10.5821 16.0657C10.5801 16.3206 10.7716 16.2667 10.9243 16.2696C11.0679 16.2715 11.2345 16.3013 11.2335 16.0763C11.2325 15.807 11.2325 15.5608 11.2325 15.3194" fill="#8F724D"/>
<path d="M9.76284 15.3194C9.76483 15.1549 9.76384 14.9962 9.76284 14.8308V14.7279C9.76284 14.6327 9.76284 14.5346 9.76284 14.4298C9.76483 14.1759 9.57328 14.2288 9.41964 14.2269C9.27597 14.2249 9.11035 14.1951 9.11035 14.4202C9.11135 14.6894 9.11135 14.9357 9.11135 15.177C9.10935 15.3415 9.11135 15.5002 9.11135 15.6656V15.7676C9.11135 15.8628 9.11135 15.9609 9.11135 16.0657C9.10935 16.3206 9.30091 16.2667 9.45356 16.2696C9.59722 16.2715 9.76384 16.3013 9.76284 16.0763C9.76184 15.807 9.76184 15.5608 9.76184 15.3194" fill="#8F724D"/>
<path d="M8.29116 15.3194C8.29316 15.1549 8.29216 14.9962 8.29116 14.8308V14.7279C8.29116 14.6327 8.29116 14.5346 8.29116 14.4298C8.29316 14.1759 8.1016 14.2288 7.94796 14.2269C7.80429 14.2249 7.63867 14.1951 7.63867 14.4202C7.63967 14.6894 7.63967 14.9357 7.63967 15.177C7.63768 15.3415 7.63967 15.5002 7.63967 15.6656C7.63967 15.6993 7.63967 15.7339 7.63967 15.7676C7.63967 15.8628 7.63967 15.9609 7.63967 16.0657C7.63768 16.3206 7.82923 16.2667 7.98188 16.2696C8.12554 16.2715 8.29216 16.3013 8.29116 16.0763C8.29016 15.807 8.29016 15.5608 8.29016 15.3194" fill="#8F724D"/>
<path d="M6.81948 15.3194C6.82148 15.1549 6.82048 14.9962 6.81948 14.8308V14.7279C6.81948 14.6327 6.81948 14.5346 6.81948 14.4298C6.82148 14.1759 6.62992 14.2288 6.47628 14.2269C6.33261 14.2249 6.16699 14.1951 6.16699 14.4202C6.16799 14.6894 6.16799 14.9357 6.16799 15.177C6.166 15.3415 6.16799 15.5002 6.16799 15.6656C6.16799 15.6993 6.16799 15.7339 6.16799 15.7676C6.16799 15.8628 6.16799 15.9609 6.16799 16.0657C6.166 16.3206 6.35755 16.2667 6.5102 16.2696C6.65386 16.2715 6.82048 16.3013 6.81948 16.0763C6.81848 15.807 6.81848 15.5608 6.81848 15.3194" fill="#8F724D"/>
<path d="M10.0366 26.6457C7.77689 24.6174 6.3472 21.9178 5.96908 18.9894C5.92518 18.6489 5.6159 18.3998 5.26172 18.4258C5.52211 21.7438 7.06155 24.8252 9.59667 27.1016C11.8504 29.1251 14.7108 30.3436 17.7528 30.5985V29.9733C14.8754 29.7204 12.1707 28.5615 10.0376 26.6457" fill="#8F724D"/>
<path d="M31.9341 18.9779C31.559 21.9084 30.1303 24.6108 27.8696 26.642C25.7804 28.5203 23.1435 29.6695 20.332 29.9542V30.5822C23.3081 30.2947 26.0997 29.0829 28.3095 27.0979C30.8457 24.8195 32.3831 21.7352 32.6405 18.4134C32.2853 18.3884 31.977 18.6375 31.9331 18.9779" fill="#8F724D"/>
<path d="M19.1373 21.4021C19.4087 22.3455 19.4107 23.3111 19.4047 24.2805C19.3937 25.8895 19.4017 28.5497 19.4017 30.1587C19.4017 30.2298 19.4047 30.301 19.4007 30.3722C19.3947 30.4693 19.4376 30.6011 19.3319 30.6463C19.1603 30.7203 18.9578 30.6819 18.7792 30.6405C18.7772 30.4857 18.7722 30.3299 18.7722 30.175C18.7722 28.6651 18.7602 26.105 18.7792 24.596C18.7871 23.9103 18.5477 23.3554 18.0419 22.8803C17.2168 22.1051 16.4037 21.3184 15.5936 20.5279C14.4791 19.4392 13.8745 18.1293 13.7977 16.5973C13.7937 16.5126 13.7718 16.4299 13.7578 16.3453C13.7937 16.0058 13.8157 15.6663 13.7618 15.3268C13.7977 15.2412 13.7957 15.1556 13.7658 15.0691C13.8007 14.87 13.8067 14.6699 13.7638 14.4709C13.7897 14.4132 13.7897 14.3564 13.7638 14.2987C13.8346 14.065 13.7369 13.8169 13.8247 13.5841C14.2177 13.6063 14.3864 13.7611 14.4332 14.1419C14.4732 14.466 14.4961 14.793 14.558 15.1133C14.7146 15.9365 15.1386 16.6251 15.7422 17.2166C16.3219 17.784 16.8995 18.3524 17.4892 18.9093C18.1955 19.5777 18.7303 20.349 19.0555 21.252C19.0745 21.3049 19.1104 21.3511 19.1393 21.4002M18.6614 22.6042C18.7183 22.4119 18.6824 22.3013 18.6595 22.1907C18.437 21.1126 17.9112 20.1913 17.112 19.4113C16.6351 18.9458 16.1572 18.4794 15.6734 18.0206C15.2813 17.6494 14.9491 17.2349 14.6527 16.7896C14.6029 16.7146 14.5949 16.5915 14.4522 16.5992C14.4522 16.7002 14.4412 16.8002 14.4532 16.8973C14.6098 18.1235 15.1217 19.1891 16.0286 20.0691C16.715 20.7356 17.4064 21.3973 18.0958 22.0609C18.2713 22.2292 18.4469 22.3975 18.6604 22.6023" fill="#71785B"/>
<path d="M20.3072 14.0709C20.3002 14.3065 20.1655 14.4729 19.981 14.4739C19.7744 14.4748 19.6428 14.2825 19.6507 13.9901C19.6577 13.7247 19.7355 13.6266 19.9371 13.6246C20.1715 13.6227 20.3162 13.7968 20.3072 14.0709Z" fill="#8F724D"/>
<path d="M18.9614 17.6591C19.1301 17.6659 19.3156 17.9169 19.3007 18.1179C19.2827 18.3593 19.15 18.5064 18.9555 18.5026C18.7489 18.4987 18.5933 18.2919 18.5993 18.0294C18.6033 17.8303 18.7789 17.6524 18.9624 17.6591" fill="#8F724D"/>
<path d="M18.9524 19.6153C18.7559 19.6095 18.5953 19.4076 18.6012 19.1758C18.6072 18.9709 18.7798 18.7728 18.9524 18.7719C19.12 18.7709 19.3146 19.0248 19.3006 19.2287C19.2847 19.471 19.149 19.622 18.9514 19.6163" fill="#8F724D"/>
<path d="M18.9476 10.976C19.1451 10.9856 19.3147 11.1943 19.3017 11.4107C19.2908 11.5963 19.0962 11.8175 18.9476 11.8127C18.762 11.8079 18.5874 11.5829 18.6014 11.3675C18.6163 11.1453 18.774 10.9674 18.9476 10.976Z" fill="#8F724D"/>
<path d="M20.307 15.1509C20.313 15.4039 20.1683 15.5914 19.9718 15.5866C19.7872 15.5818 19.6555 15.4144 19.6505 15.1788C19.6455 14.9249 19.7892 14.7383 19.9857 14.7431C20.1703 14.748 20.302 14.9143 20.307 15.1509Z" fill="#8F724D"/>
<path d="M18.9482 12.0875C19.1447 12.0971 19.3153 12.3077 19.3023 12.5232C19.2904 12.7107 19.0978 12.93 18.9482 12.9252C18.7606 12.9194 18.588 12.6963 18.603 12.4789C18.6179 12.2558 18.7756 12.0779 18.9492 12.0865" fill="#8F724D"/>
<path d="M18.9293 15.1585C18.7597 15.1605 18.6031 14.9624 18.6011 14.7412C18.5991 14.5363 18.7617 14.3334 18.9373 14.3218C19.09 14.3113 19.2915 14.5325 19.3015 14.719C19.3114 14.9143 19.1069 15.1547 18.9293 15.1576" fill="#8F724D"/>
<path d="M19.6519 12.9322C19.6558 12.6918 19.7865 12.5225 19.9741 12.5177C20.1637 12.5129 20.3123 12.6927 20.3063 12.9187C20.2994 13.1755 20.1138 13.3756 19.9003 13.3582C19.7417 13.3457 19.6489 13.1871 19.6529 12.9322" fill="#8F724D"/>
<path d="M20.3074 17.3995C20.3044 17.6399 20.1718 17.8082 19.9842 17.812C19.7946 17.8159 19.648 17.637 19.653 17.4091C19.6589 17.1552 19.8186 16.9532 20.0021 16.9686C20.1867 16.983 20.3104 17.159 20.3074 17.3995Z" fill="#8F724D"/>
<path d="M19.3004 15.7866C19.3074 16.0232 19.1258 16.2636 18.9362 16.2723C18.7686 16.279 18.611 16.0905 18.601 15.8713C18.591 15.6549 18.7686 15.4337 18.9532 15.4327C19.0918 15.4327 19.2954 15.6395 19.2994 15.7866" fill="#8F724D"/>
<path d="M19.652 11.8099C19.658 11.5733 19.7956 11.404 19.9822 11.405C20.1827 11.4069 20.3194 11.5954 20.3085 11.857C20.2985 12.0782 20.1688 12.2426 20.0062 12.2417C19.7996 12.2398 19.647 12.0532 19.652 11.8099Z" fill="#8F724D"/>
<path d="M16.5596 15.5013C16.5626 15.2715 16.7392 15.0791 16.9338 15.0945C17.0824 15.106 17.2191 15.3301 17.2141 15.5542C17.2101 15.7581 17.0745 15.9216 16.9029 15.9312C16.7033 15.9418 16.5557 15.7571 16.5596 15.5013Z" fill="#8F724D"/>
<path d="M19.6519 16.2829C19.6499 16.0415 19.7836 15.8588 19.9582 15.8645C20.1437 15.8703 20.3074 16.079 20.3074 16.3117C20.3074 16.5329 20.1527 16.7099 19.9671 16.7003C19.7856 16.6907 19.6539 16.5175 19.6519 16.2829Z" fill="#8F724D"/>
<path d="M20.706 14.3711C20.721 14.1461 20.8796 13.9778 21.0582 13.9961C21.2368 14.0143 21.3824 14.249 21.3595 14.4798C21.3385 14.6818 21.1919 14.826 21.0143 14.8183C20.7968 14.8078 20.6881 14.65 20.706 14.3711Z" fill="#8F724D"/>
<path d="M17.2162 13.2948C17.2122 13.5333 17.0825 13.6997 16.896 13.7045C16.6974 13.7102 16.5538 13.5237 16.5598 13.2688C16.5647 13.0409 16.7124 12.8735 16.9 12.8831C17.0885 12.8918 17.2192 13.063 17.2162 13.2948Z" fill="#8F724D"/>
<path d="M20.3084 18.5234C20.3004 18.7591 20.1647 18.9254 19.9781 18.9245C19.7786 18.9245 19.6409 18.736 19.6509 18.4782C19.6589 18.2542 19.8145 18.0868 20.0011 18.1012C20.1916 18.1166 20.3164 18.2869 20.3084 18.5225" fill="#8F724D"/>
<path d="M17.5736 14.0709C17.5806 14.3065 17.7153 14.4729 17.8999 14.4739C18.1064 14.4748 18.2381 14.2825 18.2301 13.9901C18.2231 13.7247 18.1453 13.6266 17.9438 13.6246C17.7093 13.6227 17.5647 13.7968 17.5736 14.0709Z" fill="#8F724D"/>
<path d="M17.5734 15.1509C17.5674 15.4039 17.7121 15.5914 17.9086 15.5866C18.0932 15.5818 18.2249 15.4144 18.2299 15.1788C18.2349 14.9249 18.0912 14.7383 17.8947 14.7431C17.7101 14.748 17.5784 14.9143 17.5734 15.1509Z" fill="#8F724D"/>
<path d="M18.2299 12.9322C18.2259 12.6918 18.0952 12.5225 17.9076 12.5177C17.718 12.5129 17.5694 12.6927 17.5754 12.9187C17.5824 13.1755 17.7679 13.3756 17.9814 13.3582C18.1401 13.3457 18.2329 13.1871 18.2289 12.9322" fill="#8F724D"/>
<path d="M17.5732 17.3996C17.5762 17.64 17.7089 17.8083 17.8965 17.8122C18.0861 17.816 18.2327 17.6372 18.2277 17.4092C18.2217 17.1553 18.0621 16.9534 17.8795 16.9688C17.695 16.9832 17.5703 17.1592 17.5742 17.3996" fill="#8F724D"/>
<path d="M18.2298 11.8099C18.2239 11.5733 18.0862 11.404 17.8996 11.405C17.6991 11.4069 17.5624 11.5954 17.5734 11.857C17.5833 12.0782 17.713 12.2426 17.8757 12.2417C18.0822 12.2398 18.2348 12.0532 18.2298 11.8099Z" fill="#8F724D"/>
<path d="M18.2302 16.2829C18.2322 16.0415 18.0985 15.8588 17.9239 15.8645C17.7383 15.8703 17.5747 16.079 17.5747 16.3117C17.5747 16.5329 17.7293 16.7099 17.9149 16.7003C18.0965 16.6907 18.2282 16.5175 18.2302 16.2829Z" fill="#8F724D"/>
<path d="M17.5721 18.5234C17.5801 18.7591 17.7158 18.9254 17.9024 18.9245C18.1019 18.9245 18.2396 18.736 18.2296 18.4782C18.2216 18.2542 18.066 18.0868 17.8794 18.1012C17.6889 18.1166 17.5642 18.2869 17.5721 18.5225" fill="#8F724D"/>
<path d="M17.2166 16.607C17.2226 16.8445 17.0969 17.0253 16.9153 17.0436C16.7287 17.0619 16.5651 16.8869 16.5611 16.6637C16.5571 16.4416 16.7018 16.2358 16.8704 16.2213C17.054 16.205 17.2116 16.381 17.2166 16.6079" fill="#8F724D"/>
<path d="M20.7061 13.3172C20.7041 13.07 20.8228 12.8796 20.9834 12.869C21.1421 12.8585 21.3596 13.1095 21.3566 13.298C21.3526 13.5115 21.1959 13.7067 21.0273 13.7067C20.8238 13.7067 20.7081 13.5663 20.7061 13.3172Z" fill="#8F724D"/>
<path d="M17.2174 14.4309C17.2054 14.6646 17.0558 14.831 16.8692 14.8175C16.6827 14.804 16.547 14.6126 16.5639 14.3886C16.5819 14.1587 16.7445 13.9779 16.9181 13.9952C17.1087 14.0144 17.2304 14.1914 17.2174 14.4309Z" fill="#8F724D"/>
<path d="M15.5274 14.7576C15.5304 14.5441 15.694 14.3652 15.8746 14.3796C16.0123 14.3902 16.139 14.5979 16.135 14.8066C16.131 14.9951 16.0063 15.1471 15.8467 15.1567C15.6621 15.1673 15.5244 14.9951 15.5274 14.7576Z" fill="#8F724D"/>
<path d="M16.136 15.7845C16.141 16.0048 16.0252 16.1721 15.8556 16.1894C15.682 16.2067 15.5304 16.0432 15.5274 15.8365C15.5244 15.6307 15.6581 15.4393 15.8137 15.4258C15.9843 15.4114 16.13 15.5739 16.136 15.7845Z" fill="#8F724D"/>
<path d="M16.1374 13.7649C16.1264 13.9822 15.9868 14.1361 15.8142 14.1236C15.6406 14.1111 15.5148 13.9332 15.5318 13.7254C15.5488 13.5119 15.6994 13.3446 15.86 13.3609C16.0366 13.3792 16.1494 13.5427 16.1384 13.7649" fill="#8F724D"/>
<path d="M22.3884 14.7576C22.3855 14.5441 22.2218 14.3652 22.0412 14.3797C21.9036 14.3902 21.7769 14.598 21.7809 14.8067C21.7848 14.9952 21.9106 15.1471 22.0692 15.1567C22.2538 15.1673 22.3914 14.9952 22.3884 14.7576Z" fill="#8F724D"/>
<path d="M21.7799 15.7845C21.775 16.0048 21.8907 16.1721 22.0603 16.1894C22.2339 16.2067 22.3855 16.0432 22.3885 15.8365C22.3915 15.6307 22.2578 15.4393 22.1022 15.4258C21.9316 15.4114 21.7859 15.5739 21.7799 15.7845Z" fill="#8F724D"/>
<path d="M21.7786 13.7649C21.7896 13.9822 21.9292 14.1361 22.1018 14.1236C22.2754 14.1111 22.4011 13.9332 22.3842 13.7254C22.3672 13.5119 22.2166 13.3446 22.0559 13.3609C21.8794 13.3792 21.7666 13.5427 21.7776 13.7649" fill="#8F724D"/>
<path d="M19.2518 16.9648C19.2518 17.1994 19.1251 17.3706 18.9435 17.3841C18.7629 17.3975 18.5943 17.1831 18.6013 16.9494C18.6083 16.7464 18.7749 16.5531 18.9465 16.5483C19.1181 16.5435 19.2518 16.7262 19.2518 16.9648Z" fill="#8F724D"/>
<path d="M21.029 15.1098C21.1766 15.1147 21.3642 15.356 21.3572 15.532C21.3492 15.7504 21.1876 15.9398 21.019 15.9312C20.8225 15.9206 20.6918 15.7282 20.7067 15.4715C20.7187 15.2695 20.8654 15.105 21.029 15.1098Z" fill="#8F724D"/>
<path d="M19.2518 13.64C19.2468 13.8535 19.1181 14.0353 18.9674 14.0401C18.8078 14.0449 18.5933 13.7881 18.6013 13.6025C18.6093 13.4044 18.7889 13.2053 18.9565 13.2092C19.1251 13.213 19.2568 13.4054 19.2518 13.641" fill="#8F724D"/>
<path d="M20.7061 16.6533C20.7061 16.3898 20.7849 16.2821 20.9834 16.2735C21.1909 16.2648 21.3565 16.4216 21.3565 16.6283C21.3565 16.8438 21.2009 17.0419 21.0303 17.0428C20.8248 17.0438 20.7071 16.9024 20.7061 16.6524" fill="#8F724D"/>
<path d="M93.0641 22.3594H38.7959V22.6191H93.0641V22.3594Z" fill="#8F724D"/>
<path d="M84.2714 14.8779L87.9319 14.9962L87.9818 13.369L83.9102 13.4036L83.8174 10.0558L83.8184 10.0539L83.9421 4.94034L81.7861 5.00477L81.8749 9.67303L81.821 14.9616L84.2714 14.8779Z" fill="#71785B"/>
<path d="M104.106 8.98772C103.018 8.50396 101.991 8.04714 101.991 7.16523C101.991 6.67282 102.473 6.32756 102.734 6.32756C103.701 6.32756 105.649 6.99212 106.062 7.13638C106.144 6.90748 106.395 6.15637 106.475 5.31293C105.505 4.99556 104.409 4.83398 103.219 4.83398C102.247 4.83398 99.8677 6.10444 99.8677 7.77016C99.8677 9.23488 101.325 9.88982 102.734 10.5236C103.938 11.0651 105.075 11.5757 105.075 12.5654C105.075 13.152 104.61 13.5415 104.421 13.5415C102.958 13.5108 100.719 12.8125 100.259 12.6644C100.199 12.9318 100.018 13.806 100.01 14.5917C100.749 14.8841 102.095 15.189 103.72 15.189C104.118 15.189 104.922 14.8466 105.69 14.1907C106.179 13.7733 106.999 12.9222 106.999 11.9066C106.999 10.2736 105.462 9.58976 104.105 8.98675L104.106 8.98772Z" fill="#71785B"/>
<path d="M97.1556 6.04171C96.2178 5.20885 94.9387 4.73087 93.6467 4.73087C92.232 4.73087 90.8981 5.26078 89.8905 6.22348C88.8549 7.2131 88.2842 8.56145 88.2842 10.0214C88.2842 12.0526 89.224 13.2816 90.0132 13.9549C90.945 14.7502 92.2161 15.2253 93.4133 15.2253C96.4991 15.2253 98.7389 12.8768 98.7389 9.64148C98.7389 7.82957 97.8779 6.68415 97.1546 6.04267L97.1556 6.04171ZM95.6291 13.3057L95.6212 13.3153L95.6102 13.322C95.242 13.5461 94.5018 13.6971 94.0418 13.6971C93.0142 13.6971 92.0794 13.2768 91.4089 12.5151C90.7185 11.7294 90.3534 10.6571 90.3534 9.41548C90.3534 7.90555 91.0827 6.92939 91.396 6.57932L91.4049 6.5697L91.4159 6.56297C91.6434 6.43506 92.4276 6.22348 92.8925 6.22348C95.1223 6.22348 96.563 7.90459 96.563 10.5061C96.563 11.6756 96.0941 12.7546 95.6291 13.3067V13.3057Z" fill="#71785B"/>
<path d="M80.2649 14.9976L80.3148 13.3348L76.1166 13.404L76.0597 10.5169L79.6184 10.4996L79.6683 8.95502L76.0417 8.98965L76.0986 6.5353H80.2111L80.243 4.95709L75.7285 5.04269L74.0483 5.00903L74.189 10.0879L74.1012 14.9793L75.939 14.913L80.2649 14.9976Z" fill="#71785B"/>
<path d="M51.0498 4.96072L48.5067 5.10883C48.0408 6.37447 47.102 8.34988 46.1931 10.2608C45.9197 10.835 45.6623 11.3774 45.4149 11.9054L45.346 12.0516L45.2722 11.9083C44.3294 10.0752 42.6343 6.57355 42.0547 4.89148L39.4736 5.02324C39.4467 5.51468 39.4088 6.41391 39.3659 7.44777C39.2591 9.99444 39.1135 13.4644 38.9658 14.9801L40.9542 14.9003L40.9363 11.3726L41.0151 6.91593L41.1607 7.25831C41.6207 8.34507 42.2083 9.60302 42.777 10.8206C43.4764 12.3199 44.1997 13.8693 44.6626 15.0522H45.5436C45.8588 14.3232 46.3297 13.3422 46.8735 12.2112C47.6078 10.683 48.4389 8.95192 49.0963 7.3968L49.228 7.0852L49.4276 10.4503L49.5692 14.9974L51.5816 14.9176L51.2284 10.0425L51.0518 4.96169L51.0498 4.96072Z" fill="#71785B"/>
<path d="M61.6742 6.04171C60.7363 5.20885 59.4573 4.73087 58.1653 4.73087C56.7506 4.73087 55.4167 5.26078 54.409 6.22348C53.3734 7.2131 52.8027 8.56145 52.8027 10.0214C52.8027 12.0526 53.7426 13.2816 54.5317 13.9549C55.4636 14.7502 56.7346 15.2253 57.9318 15.2253C61.0177 15.2253 63.2585 12.8768 63.2585 9.64148C63.2585 7.82957 62.3975 6.68415 61.6742 6.04267V6.04171ZM60.1477 13.3057L60.1397 13.3153L60.1287 13.322C59.7596 13.5461 59.0203 13.6971 58.5604 13.6971C57.5328 13.6971 56.5979 13.2768 55.9285 12.5151C55.2381 11.7294 54.8729 10.6571 54.8729 9.41548C54.8729 7.90555 55.6022 6.92939 55.9155 6.57932L55.9245 6.5697L55.9355 6.56297C56.1629 6.43506 56.9471 6.22348 57.412 6.22348C59.6419 6.22348 61.0825 7.90459 61.0825 10.5061C61.0825 11.6756 60.6136 12.7546 60.1487 13.3067L60.1477 13.3057Z" fill="#71785B"/>
<path d="M68.326 11.2466C69.6848 13.5269 70.7554 14.8589 70.9589 15.106L72.8904 14.4155C72.6051 14.0443 71.4088 12.467 70.471 10.959L70.4351 10.9013L70.49 10.86C71.0207 10.457 72.2559 9.34237 72.2559 7.69972C72.2559 6.05708 70.8422 4.97128 68.4736 4.97128L64.6216 5.00494L64.7104 9.7059L64.6395 14.9935L66.7606 14.8973L66.7067 11.0235L68.308 11.212L68.328 11.2447L68.326 11.2466ZM66.6688 9.47509L66.7437 6.31098L68.1125 6.29271C69.4264 6.29271 70.1498 6.84859 70.1498 7.85745C70.1498 9.00865 69.4723 9.56838 69.181 9.75591L69.161 9.76842H69.1371C68.5096 9.76842 67.2894 9.61454 66.7307 9.48951L66.6688 9.47509Z" fill="#71785B"/>
<path d="M38.9768 20.9281L38.9927 19.3585L38.9668 17.9717L39.6442 17.9515L39.6073 19.4701L39.6333 20.427L40.8255 20.4174L40.8095 20.9386L39.7171 20.9031L38.9768 20.9281Z" fill="#8F724D"/>
<path d="M43.3612 20.9376L43.0878 20.1375H41.9435L41.6761 20.9319L41.0146 20.9165C41.0146 20.9165 41.708 19.3883 42.3007 17.9457H42.8205C42.8205 17.9457 43.472 19.621 44.0496 20.9165L43.3622 20.9367L43.3612 20.9376ZM42.1061 19.7076H42.9362L42.5212 18.6901L42.1061 19.7076Z" fill="#8F724D"/>
<path d="M46.4545 20.9329L46.4864 19.4653L46.4655 18.4728L45.6045 18.4881L45.6095 17.9515L46.8746 17.9823L48.0718 17.9573L48.0608 18.4891L47.1369 18.4689L47.105 19.4662L47.1369 20.9088L46.4545 20.9338V20.9329Z" fill="#8F724D"/>
<path d="M49.132 20.9127L48.4655 20.9377L48.4815 19.3585L48.4556 17.9765L49.133 17.9515L49.0911 19.4701L49.133 20.9127H49.132Z" fill="#8F724D"/>
<path d="M49.7367 20.9329L49.7626 19.4806L49.7207 17.9726L50.2355 17.9823L51.5794 17.9573L51.5684 18.4631H50.3662L50.3502 19.1363L51.4108 19.1267L51.3948 19.623L50.3552 19.6278L50.3712 20.428L51.6003 20.4078L51.5844 20.9396L50.2984 20.9146L49.7367 20.9348V20.9329Z" fill="#8F724D"/>
<path d="M52.0992 20.9374L52.1202 19.3678L52.0942 17.9704L53.2446 17.9599C54.0268 17.9599 54.3739 18.3244 54.3739 18.7802C54.3739 19.2053 54.0956 19.5342 53.8492 19.7218C54.1644 20.2276 54.5735 20.7547 54.5735 20.7547L53.9639 20.972C53.9639 20.972 53.6277 20.5767 53.1817 19.8285L52.7507 19.7775L52.7667 20.9066L52.1002 20.9374H52.0992ZM53.7115 18.8264C53.7115 18.5379 53.507 18.3907 53.1388 18.3907L52.7607 18.3955L52.7397 19.2813C52.8974 19.3169 53.2545 19.3621 53.4381 19.3621C53.5329 19.3015 53.7115 19.139 53.7115 18.8254V18.8264Z" fill="#8F724D"/>
<path d="M54.9664 20.9374L54.9874 19.3678L54.9614 17.9704L56.1118 17.9599C56.8939 17.9599 57.2411 18.3244 57.2411 18.7802C57.2411 19.2053 56.9628 19.5342 56.7164 19.7218C57.0316 20.2276 57.4407 20.7547 57.4407 20.7547L56.8311 20.972C56.8311 20.972 56.4949 20.5767 56.0489 19.8285L55.6179 19.7775L55.6339 20.9066L54.9674 20.9374H54.9664ZM56.5787 18.8264C56.5787 18.5379 56.3741 18.3907 56.006 18.3907L55.6279 18.3955L55.6069 19.2813C55.7646 19.3169 56.1217 19.3621 56.3053 19.3621C56.4001 19.3015 56.5787 19.139 56.5787 18.8254V18.8264Z" fill="#8F724D"/>
<path d="M59.9227 20.9376L59.6494 20.1375H58.505L58.2376 20.9319L57.5762 20.9165C57.5762 20.9165 58.2696 19.3883 58.8622 17.9457H59.382C59.382 17.9457 60.0335 19.621 60.6111 20.9165L59.9237 20.9367L59.9227 20.9376ZM58.6676 19.7076H59.4977L59.0827 18.6901L58.6676 19.7076Z" fill="#8F724D"/>
<path d="M64.596 21.4038L64.1391 20.9537C64.0074 20.9845 63.8717 21.0047 63.729 21.0047C63.0675 21.0047 62.2065 20.5142 62.2065 19.4611C62.2065 18.5503 62.9468 17.8915 63.7979 17.8915C64.5591 17.8915 65.3103 18.4436 65.3103 19.3495C65.3103 19.9218 65.0739 20.3969 64.6958 20.6854C64.8744 20.9287 65.0629 21.121 65.3313 21.3076C65.2475 21.4798 65.1208 21.5808 65.1208 21.5808L64.596 21.4038ZM64.3595 20.4065C64.4962 20.2449 64.6269 19.9362 64.6269 19.6015C64.6269 18.8629 64.2179 18.3714 63.5764 18.3714C63.4447 18.3714 63.2192 18.432 63.1563 18.4676C63.0566 18.5792 62.857 18.8629 62.857 19.2822C62.857 20.0208 63.314 20.5123 63.9126 20.5123C64.0493 20.5123 64.2588 20.4671 64.3586 20.4055L64.3595 20.4065Z" fill="#8F724D"/>
<path d="M65.7354 19.5207L65.7463 17.9723L66.4238 17.9521C66.4188 18.1801 66.3978 18.7369 66.3978 19.4909C66.3978 20.2449 66.6183 20.4728 67.1381 20.4728C67.3845 20.4728 67.626 20.4017 67.7257 20.3315C67.8784 20.0074 67.8933 19.0764 67.8933 18.5955V17.9733L68.5448 17.9531C68.5399 18.1704 68.5239 18.7581 68.5239 19.163C68.5239 20.3882 68.1088 20.9701 67.0174 20.9701C66.0666 20.9701 65.7364 20.5094 65.7364 19.5226L65.7354 19.5207Z" fill="#8F724D"/>
<path d="M69.1229 20.9329L69.1488 19.4807L69.1069 17.9727L69.6217 17.9823L70.9656 17.9573L70.9546 18.4632H69.7524L69.7365 19.1364L70.797 19.1268L70.781 19.623L69.7415 19.6278L69.7574 20.428L70.9866 20.4078L70.9706 20.9396L69.6846 20.9146L69.1229 20.9348V20.9329Z" fill="#8F724D"/>
<path d="M75.2816 20.9636C74.9773 20.4068 73.9637 19.3393 73.5277 18.7007L73.5377 19.521L73.5846 20.9079L72.9121 20.9329L72.9381 19.3431L72.9281 17.9871L73.7053 17.9419C73.8729 18.3573 74.7349 19.3287 75.2966 20.0125L75.2866 19.1517L75.2337 17.9823L75.9162 17.9515L75.8902 19.3893V20.9175L75.2816 20.9627V20.9636Z" fill="#8F724D"/>
<path d="M76.3433 19.4605C76.3433 18.5497 77.0836 17.8909 77.9346 17.8909C78.6958 17.8909 79.4471 18.4429 79.4471 19.3489C79.4471 20.3212 78.7746 21.004 77.8667 21.004C77.2053 21.004 76.3443 20.5136 76.3443 19.4605H76.3433ZM78.4963 20.4068C78.633 20.2452 78.7637 19.9365 78.7637 19.6018C78.7637 18.8632 78.3536 18.3718 77.7131 18.3718C77.5814 18.3718 77.3559 18.4324 77.2931 18.4679C77.1933 18.5795 76.9938 18.8632 76.9938 19.2825C76.9938 20.0211 77.4507 20.5126 78.0493 20.5126C78.186 20.5126 78.3955 20.4674 78.4953 20.4058L78.4963 20.4068Z" fill="#8F724D"/>
<path d="M79.8774 20.8115C79.8774 20.5278 79.9562 20.2037 79.9562 20.2037C79.9562 20.2037 80.7124 20.4566 81.1903 20.4672C81.2272 20.4672 81.3579 20.371 81.3579 20.2037C81.3579 19.6065 79.8354 19.6219 79.8354 18.8015C79.8354 18.3052 80.5288 17.9205 80.8381 17.9205C81.2532 17.9205 81.5734 17.9859 81.8149 18.0677C81.7889 18.3764 81.6832 18.6447 81.6832 18.6447C81.6832 18.6447 81.0057 18.4014 80.6965 18.4014C80.6336 18.4014 80.5019 18.4928 80.5019 18.6245C80.5019 19.1766 81.9665 19.1304 81.9665 20.0114C81.9665 20.5278 81.2522 20.9933 80.9848 20.9933C80.5388 20.9933 80.1238 20.9125 79.8774 20.8115Z" fill="#8F724D"/>
<path d="M83.8247 19.5207L83.8357 17.9723L84.5131 17.9521C84.5081 18.1801 84.4872 18.7369 84.4872 19.4909C84.4872 20.2449 84.7077 20.4728 85.2275 20.4728C85.4739 20.4728 85.7163 20.4017 85.8161 20.3315C85.9687 20.0074 85.9837 19.0764 85.9837 18.5955V17.9733L86.6352 17.9531C86.6302 18.1704 86.6142 18.7581 86.6142 19.163C86.6142 20.3882 86.1992 20.9701 85.1067 20.9701C84.1559 20.9701 83.8257 20.5094 83.8257 19.5226L83.8247 19.5207Z" fill="#8F724D"/>
<path d="M89.5643 20.9636C89.26 20.4068 88.2464 19.3393 87.8104 18.7007L87.8204 19.521L87.8673 20.9079L87.1948 20.9329L87.2208 19.3431L87.2108 17.9871L87.988 17.9419C88.1556 18.3573 89.0176 19.3287 89.5793 20.0125L89.5693 19.1517L89.5164 17.9823L90.1989 17.9515L90.1729 19.3893V20.9175L89.5643 20.9627V20.9636Z" fill="#8F724D"/>
<path d="M90.8036 20.9329L90.8295 19.4806L90.7876 17.9726L91.3024 17.9823L92.6463 17.9573L92.6363 18.4631H91.4341L91.4181 19.1363L92.4787 19.1267L92.4627 19.623L91.4231 19.6278L91.4391 20.428L92.6672 20.4078L92.6513 20.9396L91.3653 20.9146L90.8036 20.9348V20.9329Z" fill="#8F724D"/>
<path d="M38.8433 25.1964C38.8433 24.5579 39.3192 24.2376 39.804 24.2376C40.1203 24.2376 40.4236 24.3732 40.5224 24.4299C40.4675 24.5982 40.3538 24.7435 40.3538 24.7435C40.2829 24.7021 39.9487 24.5453 39.7033 24.5453C39.5686 24.5453 39.4389 24.5809 39.39 24.6079C39.3471 24.6492 39.2154 24.8089 39.2154 25.0608C39.2154 25.4186 39.4399 25.7619 39.9208 25.7619C40.0315 25.7619 40.1722 25.709 40.1722 25.709L40.1752 25.1022L40.5343 25.081L40.5124 25.8889C40.3677 25.9543 40.0614 26.0572 39.7701 26.0572C39.2792 26.0572 38.8433 25.7225 38.8433 25.1964Z" fill="#8F724D"/>
<path d="M40.771 25.1551C40.771 24.6223 41.204 24.2376 41.7008 24.2376C42.1458 24.2376 42.5848 24.5598 42.5848 25.0897C42.5848 25.6581 42.1917 26.0572 41.6609 26.0572C41.2738 26.0572 40.771 25.7706 40.771 25.1551ZM42.0291 25.7081C42.1089 25.6138 42.1857 25.433 42.1857 25.2378C42.1857 24.806 41.9463 24.5194 41.5721 24.5194C41.4953 24.5194 41.3636 24.555 41.3267 24.5752C41.2688 24.6406 41.1521 24.806 41.1521 25.0512C41.1521 25.483 41.4195 25.7696 41.7687 25.7696C41.8485 25.7696 41.9712 25.7427 42.0291 25.7071V25.7081Z" fill="#8F724D"/>
<path d="M42.8511 26.0074L42.8631 25.1226L42.8481 24.2888C42.8481 24.2888 43.5076 24.2801 43.6214 24.2801C43.9007 24.2801 44.1122 24.4311 44.1122 24.6466C44.1122 24.8418 43.9955 24.9841 43.8548 25.0639C44.0913 25.1168 44.2599 25.2678 44.2599 25.4958C44.2599 25.8305 43.9596 26.0228 43.6124 26.0228C43.3081 26.0228 43.0297 26.0141 42.8511 26.0084V26.0074ZM43.5814 24.9928C43.6493 24.9659 43.762 24.8745 43.762 24.7379C43.762 24.6014 43.6423 24.534 43.4737 24.534H43.2253L43.2193 24.9841L43.5814 24.9928ZM43.8847 25.5044C43.8847 25.3534 43.762 25.238 43.4976 25.238C43.4368 25.238 43.2243 25.2467 43.2243 25.2467L43.2303 25.7381C43.3131 25.7593 43.4577 25.7651 43.5675 25.7651C43.7082 25.7651 43.8837 25.6823 43.8837 25.5044H43.8847Z" fill="#8F724D"/>
<path d="M44.8971 26.0043L44.507 26.0187L44.5159 25.0955L44.501 24.2876L44.8971 24.2732L44.8721 25.1609L44.8971 26.0043Z" fill="#8F724D"/>
<path d="M45.2507 26.016L45.2657 25.1668L45.2407 24.2849L45.541 24.2907L46.3262 24.2763L46.3202 24.5725H45.6178L45.6089 24.9658L46.2284 24.9601L46.2195 25.2495L45.6119 25.2524L45.6208 25.7198L46.3392 25.7083L46.3302 26.0189L45.5779 26.0045L45.2497 26.016H45.2507Z" fill="#8F724D"/>
<path d="M46.6314 26.0187L46.6434 25.1012L46.6284 24.2847L47.3009 24.2789C47.7578 24.2789 47.9603 24.4915 47.9603 24.7579C47.9603 25.006 47.7977 25.1984 47.653 25.308C47.8376 25.6042 48.0761 25.912 48.0761 25.912L47.7199 26.0389C47.7199 26.0389 47.5233 25.8081 47.2629 25.3705L47.0115 25.3407L47.0205 26.0005L46.6304 26.0178L46.6314 26.0187ZM47.5732 24.7848C47.5732 24.6165 47.4535 24.53 47.239 24.53L47.0185 24.5328L47.0065 25.0503C47.0983 25.0714 47.3068 25.0974 47.4146 25.0974C47.4695 25.0618 47.5742 24.9675 47.5742 24.7839L47.5732 24.7848Z" fill="#8F724D"/>
<path d="M49.6841 26.0333C49.5065 25.7082 48.9139 25.0841 48.6595 24.7109L48.6654 25.1899L48.6934 26.0006L48.3003 26.015L48.3153 25.086L48.3093 24.2935L48.7632 24.2666C48.861 24.509 49.3648 25.0773 49.6931 25.4765L49.6871 24.9735L49.6562 24.2897L50.0552 24.2724L50.0403 25.1129V26.0064L49.6841 26.0333Z" fill="#8F724D"/>
<path d="M50.3032 25.1551C50.3032 24.6223 50.7362 24.2376 51.2331 24.2376C51.678 24.2376 52.117 24.5598 52.117 25.0897C52.117 25.6581 51.7239 26.0572 51.1932 26.0572C50.8061 26.0572 50.3032 25.7706 50.3032 25.1551ZM51.5613 25.7081C51.6411 25.6138 51.7179 25.433 51.7179 25.2378C51.7179 24.806 51.4785 24.5194 51.1044 24.5194C51.0275 24.5194 50.8958 24.555 50.8589 24.5752C50.8011 24.6406 50.6843 24.806 50.6843 25.0512C50.6843 25.483 50.9517 25.7696 51.3009 25.7696C51.3807 25.7696 51.5034 25.7427 51.5613 25.7071V25.7081Z" fill="#8F724D"/>
<path d="M53.2825 26.0158H53.2217L53.2466 25.1022L53.2376 24.2828H53.7993C54.2104 24.2828 54.8918 24.3809 54.8918 25.0906C54.8918 25.6523 54.5077 26.037 53.9191 26.037C53.6188 26.037 53.523 26.0197 53.2835 26.0158H53.2825ZM54.3042 25.7052C54.4119 25.5754 54.4977 25.3705 54.4977 25.1464C54.4977 24.6704 54.1815 24.5434 53.7884 24.5434C53.7365 24.5434 53.6776 24.5463 53.6317 24.5521L53.6138 25.1233L53.6317 25.7331C53.7145 25.7446 53.8193 25.7542 53.9231 25.7542C54.0707 25.7542 54.2024 25.7331 54.3032 25.7071L54.3042 25.7052Z" fill="#8F724D"/>
<path d="M55.1648 26.016L55.1797 25.1668L55.1548 24.2849L55.4551 24.2907L56.2403 24.2763L56.2343 24.5725H55.5319L55.5229 24.9658L56.1425 24.9601L56.1335 25.2495L55.5259 25.2524L55.5349 25.7198L56.2532 25.7083L56.2443 26.0189L55.492 26.0045L55.1638 26.016H55.1648Z" fill="#8F724D"/>
<path d="M56.545 26.0128L56.554 25.0953L56.5391 24.2846L56.9351 24.273L56.9132 25.1607L56.9282 25.7195L57.6245 25.7137L57.6156 26.0186L56.977 25.9974L56.544 26.0119L56.545 26.0128Z" fill="#8F724D"/>
<path d="M58.7019 26.016L58.7168 25.1668L58.6919 24.2849L58.9922 24.2907L59.7774 24.2763L59.7714 24.5725H59.069L59.06 24.9658L59.6796 24.9601L59.6706 25.2495L59.063 25.2524L59.072 25.7198L59.7903 25.7083L59.7814 26.0189L59.0291 26.0045L58.7009 26.016H58.7019Z" fill="#8F724D"/>
<path d="M60.064 25.9445C60.064 25.779 60.1099 25.5896 60.1099 25.5896C60.1099 25.5896 60.5519 25.7377 60.8312 25.7434C60.8522 25.7434 60.929 25.6877 60.929 25.5896C60.929 25.2405 60.0391 25.2491 60.0391 24.7702C60.0391 24.4807 60.4441 24.2556 60.6247 24.2556C60.8671 24.2556 61.0547 24.2941 61.1954 24.3412C61.1804 24.522 61.1186 24.6788 61.1186 24.6788C61.1186 24.6788 60.7225 24.5365 60.5419 24.5365C60.505 24.5365 60.4282 24.5894 60.4282 24.6663C60.4282 24.9885 61.2842 24.9625 61.2842 25.477C61.2842 25.779 60.8671 26.0512 60.7105 26.0512C60.4501 26.0512 60.2077 26.0041 60.063 25.9445H60.064Z" fill="#8F724D"/>
<path d="M61.8592 26.0157L61.8771 25.1578L61.8651 24.5779L61.3623 24.5866L61.3653 24.273L62.1046 24.2904L62.804 24.2759L62.798 24.5866L62.2582 24.575L62.2403 25.1578L62.2582 26.0013L61.8592 26.0157Z" fill="#8F724D"/>
<path d="M63.9739 26.0189L63.8143 25.5515H63.1448L62.9882 26.016L62.6011 26.0074C62.6011 26.0074 63.0061 25.1139 63.3533 24.2705H63.6576C63.6576 24.2705 64.0377 25.2495 64.376 26.0074L63.9739 26.0189ZM63.2406 25.3005H63.7255L63.483 24.7061L63.2406 25.3005Z" fill="#8F724D"/>
<path d="M64.6234 26.0158H64.5615L64.5865 25.1022L64.5775 24.2828H65.1392C65.5502 24.2828 66.2316 24.3809 66.2316 25.0906C66.2316 25.6523 65.8485 26.037 65.2589 26.037C64.9586 26.037 64.8628 26.0197 64.6234 26.0158ZM65.645 25.7052C65.7528 25.5754 65.8386 25.3705 65.8386 25.1464C65.8386 24.6704 65.5223 24.5434 65.1292 24.5434C65.0773 24.5434 65.0185 24.5463 64.9726 24.5521L64.9546 25.1233L64.9726 25.7331C65.0554 25.7446 65.1601 25.7542 65.2639 25.7542C65.4116 25.7542 65.5432 25.7331 65.644 25.7071L65.645 25.7052Z" fill="#8F724D"/>
<path d="M66.4004 25.1551C66.4004 24.6223 66.8334 24.2376 67.3302 24.2376C67.7752 24.2376 68.2142 24.5598 68.2142 25.0897C68.2142 25.6581 67.8211 26.0572 67.2903 26.0572C66.9032 26.0572 66.4004 25.7706 66.4004 25.1551ZM67.6585 25.7081C67.7383 25.6138 67.8151 25.433 67.8151 25.2378C67.8151 24.806 67.5757 24.5194 67.2015 24.5194C67.1247 24.5194 66.993 24.555 66.9561 24.5752C66.8982 24.6406 66.7815 24.806 66.7815 25.0512C66.7815 25.483 67.0489 25.7696 67.3981 25.7696C67.4779 25.7696 67.6006 25.7427 67.6585 25.7071V25.7081Z" fill="#8F724D"/>
<path d="M39.0068 29.3758L38.915 29.1575L39.1874 28.9286C39.5136 28.6526 39.6633 28.4371 39.6633 28.2361C39.6633 28.1034 39.5775 28.0101 39.4259 28.0101C39.2223 28.0101 39.0707 28.2034 39.0707 28.2034C39.0567 28.2034 38.916 28.0043 38.916 27.9851C38.9649 27.9303 39.1565 27.7312 39.4717 27.7312C39.787 27.7312 39.9816 27.9159 39.9816 28.1871C39.9816 28.4583 39.7721 28.7728 39.4947 29.0151L39.4029 29.095H39.9816L39.9706 29.3767H39.0078L39.0068 29.3758Z" fill="#8F724D"/>
<path d="M40.1689 28.5805C40.1689 28.0756 40.4383 27.7438 40.8304 27.7438C41.2225 27.7438 41.429 28.0891 41.429 28.5084C41.429 29.0162 41.1946 29.3971 40.7616 29.3971C40.5072 29.3971 40.1689 29.1374 40.1689 28.5796V28.5805ZM40.994 29.0883C41.0489 29.0027 41.0938 28.8181 41.0938 28.6075C41.0938 28.3151 41.0389 27.9997 40.7506 27.9997C40.7047 27.9997 40.6389 28.0218 40.6129 28.0381C40.57 28.1074 40.5042 28.2641 40.5042 28.5238C40.5042 28.8383 40.6099 29.123 40.8394 29.123C40.8913 29.123 40.9621 29.1066 40.994 29.0874V29.0883Z" fill="#8F724D"/>
<path d="M41.6123 29.3755L41.5205 29.1572L41.7929 28.9283C42.1191 28.6523 42.2688 28.4369 42.2688 28.2359C42.2688 28.1031 42.183 28.0099 42.0313 28.0099C41.8278 28.0099 41.6761 28.2032 41.6761 28.2032C41.6622 28.2032 41.5215 28.0041 41.5215 27.9849C41.5704 27.93 41.7619 27.731 42.0772 27.731C42.3925 27.731 42.587 27.9156 42.587 28.1868C42.587 28.458 42.3775 28.7725 42.1002 29.0149L42.0084 29.0947H42.587L42.5761 29.3765H41.6133L41.6123 29.3755Z" fill="#8F724D"/>
<path d="M43.3845 29.3755V28.9831H42.7171L42.6343 28.8398L43.3815 27.7771L43.7108 27.7329V28.7514H43.9373L43.9263 28.986H43.7118V29.3755H43.3855H43.3845ZM42.9805 28.7542H43.3845V28.1301L42.9805 28.7542Z" fill="#8F724D"/>
<path d="M45.1235 28.9068L45.1435 28.7L45.4877 28.7058L46.1003 28.6952L46.0773 28.9048L45.6593 28.8962L45.1235 28.9068Z" fill="#8F724D"/>
<path d="M47.3535 29.3755L47.2617 29.1572L47.5341 28.9283C47.8603 28.6523 48.01 28.4369 48.01 28.2359C48.01 28.1031 47.9242 28.0099 47.7725 28.0099C47.569 28.0099 47.4174 28.2032 47.4174 28.2032C47.4034 28.2032 47.2627 28.0041 47.2627 27.9849C47.3116 27.93 47.5032 27.731 47.8184 27.731C48.1337 27.731 48.3282 27.9156 48.3282 28.1868C48.3282 28.458 48.1187 28.7725 47.8414 29.0149L47.7496 29.0947H48.3282L48.3173 29.3765H47.3545L47.3535 29.3755Z" fill="#8F724D"/>
<path d="M48.5171 28.5805C48.5171 28.0756 48.7865 27.7438 49.1786 27.7438C49.5706 27.7438 49.7772 28.0891 49.7772 28.5084C49.7772 29.0162 49.5427 29.3971 49.1097 29.3971C48.8553 29.3971 48.5171 29.1374 48.5171 28.5796V28.5805ZM49.3422 29.0883C49.3971 29.0027 49.4419 28.8181 49.4419 28.6075C49.4419 28.3151 49.3871 27.9997 49.0987 27.9997C49.0528 27.9997 48.987 28.0218 48.9611 28.0381C48.9182 28.1074 48.8523 28.2641 48.8523 28.5238C48.8523 28.8383 48.9581 29.123 49.1875 29.123C49.2394 29.123 49.3103 29.1066 49.3422 29.0874V29.0883Z" fill="#8F724D"/>
<path d="M49.8906 29.3479C49.8906 29.3152 49.9764 29.0825 49.9934 29.0825C49.9934 29.0825 50.1141 29.121 50.2917 29.121C50.3835 29.121 50.4603 29.1046 50.5242 29.0883C50.5581 29.0354 50.587 28.9671 50.587 28.8844C50.587 28.7132 50.4324 28.6084 50.2029 28.6084H50.166V28.39H50.2089C50.3835 28.3843 50.5182 28.2881 50.5182 28.1496C50.5182 28.0525 50.4404 27.9919 50.3236 27.9919C50.155 27.9919 50.0283 28.1131 50.0283 28.1131C49.9964 28.1131 49.8906 27.914 49.8906 27.8842C49.9475 27.8428 50.143 27.7264 50.3835 27.7264C50.6898 27.7264 50.8564 27.889 50.8564 28.0823C50.8564 28.2621 50.7187 28.3997 50.57 28.4554C50.7476 28.5026 50.9192 28.6545 50.9192 28.8748C50.9192 29.1835 50.6698 29.4076 50.2318 29.4076C50.0602 29.4076 49.9026 29.3527 49.8906 29.347V29.3479Z" fill="#8F724D"/>
<path d="M51.0679 28.5805C51.0679 28.0756 51.3372 27.7438 51.7293 27.7438C52.1214 27.7438 52.3279 28.0891 52.3279 28.5084C52.3279 29.0162 52.0935 29.3971 51.6605 29.3971C51.4061 29.3971 51.0679 29.1374 51.0679 28.5796V28.5805ZM51.893 29.0883C51.9478 29.0027 51.9927 28.8181 51.9927 28.6075C51.9927 28.3151 51.9379 27.9997 51.6495 27.9997C51.6036 27.9997 51.5378 28.0218 51.5118 28.0381C51.4689 28.1074 51.4031 28.2641 51.4031 28.5238C51.4031 28.8383 51.5089 29.123 51.7383 29.123C51.7902 29.123 51.861 29.1066 51.893 29.0874V29.0883Z" fill="#8F724D"/>
</svg>
