<svg width="107" height="34" viewBox="0 0 107 34" fill="none" xmlns="http://www.w3.org/2000/svg">
<path d="M66.9748 6.79149L66.3263 6.81568L66.3566 5.08003L66.3081 3.27786L66.9021 3.28996L68.4538 3.25972L68.4416 3.86447H67.0536L67.0354 4.6688L68.2598 4.6567L68.2416 5.24936L67.0415 5.25541L67.0597 6.21092L68.478 6.18673L68.4598 6.82173L66.9748 6.79149Z" fill="#8F724D"/>
<path d="M63.8661 6.85799C63.2721 6.85799 63.0842 6.8217 62.6115 6.81565H62.4902L62.5387 4.94696L62.5205 3.27179H63.6297C64.4419 3.27179 65.7875 3.47136 65.7875 4.92277C65.7875 6.07181 65.0299 6.85799 63.8661 6.85799ZM63.8782 6.27742C64.1692 6.27742 64.4298 6.23509 64.6298 6.18066C64.842 5.91457 65.0117 5.49729 65.0117 5.03767C65.0117 4.06402 64.3874 3.80397 63.6115 3.80397C63.5085 3.80397 63.3933 3.81002 63.3024 3.82212L63.2661 4.98929L63.3024 6.23509C63.4661 6.25928 63.6722 6.27742 63.8782 6.27742Z" fill="#8F724D"/>
<path d="M60.4584 6.79752L59.6644 6.82171L59.3492 5.86619H58.0279L57.7188 6.81566L56.9551 6.79752C56.9551 6.79752 57.7551 4.97116 58.4401 3.2476H59.0401C59.0401 3.2476 59.7917 5.24934 60.4584 6.79752ZM58.6946 4.13659L58.2158 5.35215H59.1735L58.6946 4.13659Z" fill="#8F724D"/>
<path d="M56.5234 5.06793L56.5719 6.79148L55.8022 6.82172L55.8203 4.93488L55.79 3.2839L56.5719 3.25366L56.5234 5.06793Z" fill="#8F724D"/>
<path d="M53.7904 6.90032C52.7782 6.90032 52.0327 6.14438 52.0327 5.15258C52.0327 3.82816 53.0086 3.18108 53.8692 3.18108C54.4087 3.18108 54.9178 3.41693 55.2391 3.6044C55.136 3.96121 54.936 4.20916 54.936 4.20916C54.9057 4.20916 54.2814 3.82212 53.7238 3.82212C53.4571 3.82212 53.2571 3.89469 53.1177 3.94911C52.9601 4.11845 52.7843 4.46316 52.7843 4.86229C52.7843 5.26748 52.9116 5.61824 53.1419 5.86619C53.3662 6.10204 53.6571 6.24114 54.0693 6.24114C54.336 6.24114 55.0936 5.91457 55.1178 5.91457C55.1724 6.28347 55.13 6.5798 55.13 6.5798C54.8451 6.71889 54.1723 6.90032 53.7904 6.90032Z" fill="#8F724D"/>
<path d="M51.5138 6.79752L50.8107 6.85195C50.4592 6.18672 49.2894 4.91069 48.7863 4.14869L48.7984 5.1284L48.853 6.78543L48.0771 6.81566L48.1075 4.91673L48.0953 3.29599L48.9924 3.24156C49.1863 3.73746 50.1804 4.89859 50.8289 5.71501L50.8168 4.68693L50.7562 3.28994L51.5441 3.25366L51.5138 4.97116V6.79752Z" fill="#8F724D"/>
<path d="M46.0095 6.79149L45.361 6.81568L45.3913 5.08003L45.3428 3.27786L45.9368 3.28996L47.4884 3.25972L47.4763 3.86447H46.0883L46.0701 4.6688L47.2945 4.6567L47.2763 5.24936L46.0762 5.25541L46.0944 6.21092L47.5127 6.18673L47.4945 6.82173L46.0095 6.79149Z" fill="#8F724D"/>
<path d="M43.1791 6.90032C42.2093 6.90032 41.3486 6.21695 41.3486 5.14048C41.3486 3.83421 42.2881 3.18108 43.2458 3.18108C43.8701 3.18108 44.4701 3.45926 44.6641 3.57417C44.555 3.91888 44.3307 4.21521 44.3307 4.21521C44.1913 4.13054 43.5306 3.81002 43.0458 3.81002C42.7791 3.81002 42.5245 3.88259 42.4275 3.93702C42.3427 4.02169 42.082 4.34825 42.082 4.86229C42.082 5.59405 42.5245 6.29556 43.4761 6.29556C43.6943 6.29556 43.9731 6.18671 43.9731 6.18671L43.9792 4.94696L44.6883 4.90463L44.6459 6.55561C44.361 6.68866 43.7549 6.90032 43.1791 6.90032Z" fill="#8F724D"/>
<path d="M41.3217 6.79752L40.5277 6.82171L40.2125 5.86619H38.8912L38.5821 6.81566L37.8184 6.79752C37.8184 6.79752 38.6184 4.97116 39.3033 3.2476H39.9034C39.9034 3.2476 40.655 5.24934 41.3217 6.79752ZM39.5579 4.13659L39.0791 5.35215H40.0367L39.5579 4.13659Z" fill="#8F724D"/>
<path d="M10.927 3.3428C10.2067 3.49526 9.51689 3.8655 9.06724 4.34028C8.61322 4.82377 8.4386 5.22886 8.37311 5.97805C8.33819 6.40492 8.312 6.51381 8.18103 6.77951C7.98021 7.17589 7.66153 7.49386 7.26426 7.69423C6.99796 7.8249 6.88445 7.85104 6.46972 7.88588C5.71884 7.95122 5.29975 8.12981 4.81954 8.57845C4.33496 9.03581 3.96825 9.72402 3.81545 10.4645C3.75434 10.7607 3.74561 11.536 3.74561 17.3379C3.74561 23.1398 3.75434 23.9152 3.81545 24.2114C3.96825 24.9518 4.33496 25.64 4.81954 26.0974C5.29975 26.546 5.71884 26.7246 6.46972 26.79C6.88445 26.8248 6.99796 26.851 7.26426 26.9816C7.66153 27.182 7.98021 27.5 8.18103 27.8963C8.312 28.162 8.33819 28.2709 8.37311 28.6978C8.4386 29.447 8.61322 29.8564 9.06724 30.3356C9.48197 30.7712 9.99711 31.0717 10.6956 31.2851L11.0143 31.3853L17.6718 31.3984C25.0016 31.4115 24.6785 31.4202 25.3988 31.1414C26.0973 30.8757 26.7871 30.2877 27.0578 29.7345C27.2062 29.4296 27.3197 28.9635 27.3197 28.6281C27.3197 27.966 27.7825 27.2865 28.4417 26.9729C28.7123 26.8466 28.8302 26.8205 29.2275 26.7856C29.9609 26.729 30.3669 26.5591 30.8558 26.1105C31.3055 25.6923 31.6373 25.1174 31.8293 24.4161L31.9254 24.0676V17.3379V10.6082L31.8293 10.2598C31.6373 9.5585 31.3055 8.98354 30.8558 8.56539C30.3669 8.11674 29.9696 7.95122 29.2231 7.88588C28.625 7.83361 28.2452 7.67245 27.8872 7.31963C27.538 6.96681 27.3677 6.57044 27.3153 5.99983C27.2935 5.75155 27.2368 5.41616 27.1887 5.25935C26.9661 4.54064 26.2327 3.84372 25.3508 3.51268C24.6742 3.26004 24.9317 3.26875 17.7853 3.27311C12.1406 3.27747 11.1889 3.28618 10.927 3.3428ZM24.6873 4.09635C25.5298 4.29672 26.2545 4.84991 26.4728 5.451C26.5077 5.55554 26.5557 5.84302 26.5776 6.08695C26.6256 6.63577 26.7609 7.03651 27.0316 7.44595C27.5031 8.15594 28.2059 8.54796 29.1271 8.62637C29.3715 8.64815 29.6553 8.69606 29.7644 8.73526C30.2141 8.89207 30.6244 9.31458 30.9038 9.91132C31.2225 10.5995 31.2051 10.1465 31.2051 17.3379C31.2051 24.4945 31.2225 24.072 30.9169 24.7384C30.7249 25.1566 30.476 25.4789 30.1879 25.701C29.8779 25.9319 29.6509 26.0059 29.1271 26.0495C28.2146 26.1279 27.5205 26.5112 27.0403 27.2168C26.7696 27.6089 26.6256 28.0357 26.5776 28.5889C26.5557 28.8328 26.5077 29.1203 26.4728 29.2249C26.2545 29.826 25.5298 30.3791 24.6873 30.5795C24.338 30.6623 24.1503 30.6666 17.8639 30.6666C13.411 30.6666 11.3199 30.6536 11.1409 30.6187C10.5734 30.5142 9.91853 30.1701 9.57801 29.7911C9.26369 29.4426 9.16328 29.19 9.11526 28.6368C9.05414 27.8702 8.80967 27.3127 8.32509 26.8335C7.84924 26.3588 7.14639 26.0538 6.53521 26.0495C5.68829 26.0495 4.97233 25.4266 4.63618 24.4074L4.50958 24.0241V17.3379V10.6518L4.63618 10.2685C4.97233 9.24924 5.68829 8.62637 6.53521 8.62637C7.14639 8.62201 7.84924 8.31711 8.32509 7.84233C8.80967 7.36319 9.05414 6.80565 9.11526 6.03903C9.14582 5.67315 9.18075 5.51198 9.26806 5.3334C9.4907 4.88039 9.95345 4.48402 10.5515 4.23138C11.0754 4.00924 10.8746 4.01795 17.8246 4.0136C24.159 4.00924 24.338 4.01359 24.6873 4.09635Z" fill="#8F724D"/>
<path d="M11.5687 5.31599C11.1278 5.4336 10.7611 5.63832 10.4119 5.965C9.92729 6.42236 9.74393 6.81002 9.68282 7.52437C9.63479 8.0732 9.52129 8.34762 9.22007 8.66994C8.91011 9.00098 8.58706 9.14037 8.01953 9.19264C7.51749 9.23619 7.19007 9.33638 6.87575 9.54546C6.55707 9.75453 6.16853 10.1988 5.99827 10.5516C5.69268 11.1789 5.71014 10.752 5.71014 17.3379C5.71014 23.2183 5.71014 23.2879 5.80182 23.6103C5.92406 24.0546 6.12051 24.403 6.42173 24.7297C6.89758 25.235 7.29048 25.4223 8.01953 25.4833C8.58706 25.5355 8.91011 25.6749 9.22007 26.006C9.52129 26.3283 9.63479 26.6071 9.68282 27.1472C9.74393 27.8702 9.93602 28.2666 10.4381 28.737C10.7698 29.0463 11.1409 29.2467 11.5862 29.3599C11.9136 29.4427 12.0926 29.447 17.8464 29.447C23.6003 29.447 23.7793 29.4427 24.1067 29.3599C24.7484 29.1987 25.3203 28.7937 25.6695 28.2535C25.8791 27.9269 25.962 27.6612 26.0101 27.1254C26.0974 26.1236 26.6518 25.5704 27.6559 25.4833C27.8916 25.4615 28.1841 25.4136 28.3064 25.3787C28.8259 25.2219 29.4283 24.6774 29.6946 24.1199C29.9958 23.497 29.9827 23.8716 29.9827 17.3379C29.9827 10.8043 29.9958 11.1789 29.6946 10.556C29.4283 10.0028 28.8302 9.45834 28.3064 9.29718C28.1841 9.26233 27.8916 9.21442 27.6602 9.19264C26.6562 9.10988 26.0974 8.55234 26.0101 7.55051C25.962 7.01475 25.8791 6.74904 25.6695 6.42236C25.3203 5.88224 24.7484 5.47716 24.1067 5.31599C23.7793 5.23323 23.6046 5.22888 17.829 5.23323C12.1232 5.23323 11.8743 5.23759 11.5687 5.31599ZM24.2289 6.1523C24.9056 6.47463 25.2024 6.9015 25.2679 7.65069C25.3465 8.50878 25.6826 9.10988 26.3157 9.53675C26.6605 9.76325 27.0403 9.88521 27.5686 9.92877C28.0662 9.97232 28.3369 10.0856 28.6469 10.3731C28.8608 10.5647 29.0922 10.9698 29.1795 11.3008C29.2668 11.6275 29.2668 23.044 29.1795 23.3707C29.0354 23.9065 28.7167 24.3333 28.2758 24.5685C28.0531 24.6862 27.9396 24.7123 27.5729 24.7471C27.0403 24.7907 26.6649 24.9083 26.3157 25.1392C25.6826 25.5617 25.3465 26.1671 25.2679 27.0165C25.2068 27.7134 24.9361 28.1534 24.3904 28.4452C23.8709 28.7196 24.2245 28.7065 17.8464 28.7065C14.0746 28.7065 11.9529 28.6891 11.8263 28.6586C11.3068 28.541 10.7917 28.1534 10.5821 27.7221C10.4904 27.5348 10.4512 27.3737 10.425 27.0557C10.3726 26.4938 10.2547 26.1279 9.99714 25.762C9.54312 25.1217 8.98869 24.8212 8.12867 24.7471C7.78816 24.7166 7.62663 24.6818 7.44764 24.5903C7.03291 24.3856 6.73169 24.0241 6.55707 23.5275L6.45229 23.24V17.3379V11.4359L6.55707 11.1484C6.73169 10.6518 7.03291 10.2903 7.44764 10.0856C7.62663 9.9941 7.78816 9.95926 8.12867 9.92877C8.98869 9.85472 9.54312 9.55417 9.99714 8.91387C10.2547 8.54798 10.3726 8.1821 10.425 7.6202C10.4512 7.30223 10.4904 7.14107 10.5821 6.95377C10.7873 6.53126 11.3068 6.13488 11.8089 6.01727C11.9049 5.99549 14.5111 5.98243 17.9338 5.98243L23.8928 5.99114L24.2289 6.1523Z" fill="#444343"/>
<path d="M12.5248 7.19332C12.42 7.2151 12.2105 7.28915 12.0577 7.35884C11.3417 7.69423 10.9488 8.3868 10.9488 9.32765C10.9488 9.97231 10.4773 10.4514 9.83559 10.4558C8.67871 10.4602 7.86235 11.0656 7.679 12.05C7.61351 12.4028 7.61351 22.273 7.679 22.6346C7.70519 22.7739 7.79687 23.0222 7.87981 23.1834C8.23779 23.8629 8.90136 24.2114 9.85742 24.2201C10.4773 24.2244 10.9488 24.7123 10.9488 25.3482C10.9488 26.2891 11.3417 26.9816 12.0577 27.317C12.2105 27.3867 12.4506 27.4651 12.5903 27.4869C12.9395 27.5435 22.7577 27.5435 23.1069 27.4869C23.7225 27.3867 24.2682 26.9729 24.5388 26.4067C24.6523 26.1671 24.6742 26.0539 24.7047 25.5921C24.7309 25.1522 24.7571 25.0172 24.8444 24.8429C25.0496 24.4466 25.4032 24.2244 25.8354 24.2201C26.8046 24.2114 27.4812 23.8498 27.8217 23.1616C27.9047 22.9874 27.9964 22.7304 28.0182 22.5867C28.075 22.2338 28.075 12.442 28.0182 12.0892C27.9964 11.9455 27.9091 11.6885 27.8217 11.5186C27.4812 10.8217 26.8089 10.4645 25.8354 10.4558C25.4032 10.4514 25.0496 10.2293 24.8444 9.83292C24.7571 9.65869 24.7309 9.52366 24.7047 9.08373C24.6742 8.62202 24.6523 8.50877 24.5388 8.2692C24.2682 7.70295 23.7225 7.28915 23.1069 7.18896C22.7795 7.1367 12.7954 7.14105 12.5248 7.19332ZM23.2379 8.01221C23.4824 8.1211 23.6788 8.29969 23.8142 8.52619C23.9146 8.69606 23.932 8.79189 23.9626 9.24925C24.0106 10.0376 24.2158 10.4776 24.7178 10.8565C25.0627 11.1135 25.3465 11.2006 25.9533 11.2355C26.4379 11.266 26.5077 11.2834 26.6954 11.3966C26.9399 11.5491 27.1669 11.8279 27.2324 12.0587C27.2935 12.2809 27.2935 22.395 27.2324 22.6171C27.1669 22.848 26.9399 23.1268 26.6954 23.2792C26.5077 23.3925 26.4379 23.4099 25.9533 23.4404C25.3465 23.4752 25.0627 23.5623 24.7178 23.8193C24.2158 24.1983 24.0106 24.6382 23.9626 25.4266C23.932 25.884 23.9146 25.9798 23.8142 26.1497C23.6788 26.3762 23.4824 26.5548 23.2379 26.6637C23.072 26.7421 22.8013 26.7464 17.8464 26.7464C12.695 26.7464 12.6252 26.7421 12.4331 26.655C12.324 26.607 12.1712 26.5025 12.0926 26.4284C11.8394 26.1889 11.7695 25.9972 11.7302 25.4397C11.691 24.8821 11.6691 24.782 11.4989 24.4422C11.3242 24.1068 11.0056 23.8063 10.6214 23.6233C10.3245 23.4839 10.246 23.4665 9.76137 23.436C9.35101 23.4142 9.18512 23.3838 9.04979 23.3141C8.81841 23.1965 8.61759 22.983 8.50845 22.7391C8.42114 22.5474 8.41678 22.4778 8.41678 17.3379C8.41678 12.1981 8.42114 12.1284 8.50845 11.9368C8.61759 11.6928 8.81841 11.4794 9.04979 11.3618C9.18075 11.2921 9.35101 11.2616 9.72645 11.2355C10.0015 11.2181 10.2896 11.1832 10.3595 11.1614C10.8353 11.0133 11.2893 10.6431 11.4989 10.2337C11.6691 9.8939 11.691 9.79372 11.7302 9.23618C11.7695 8.67864 11.8394 8.48699 12.0926 8.24742C12.1712 8.17337 12.324 8.06883 12.4331 8.02092C12.6252 7.9338 12.695 7.92945 17.8464 7.92945C22.8013 7.92945 23.072 7.9338 23.2379 8.01221Z" fill="#995376"/>
<path d="M13.4539 8.98407C13.3676 9.002 13.1951 9.06298 13.0692 9.12038C12.4796 9.39659 12.1561 9.96694 12.1561 10.7417C12.1561 11.2726 11.7678 11.6672 11.2393 11.6708C10.2866 11.6744 9.61429 12.173 9.4633 12.9837C9.40937 13.2742 9.40937 21.4026 9.4633 21.7003C9.48487 21.8151 9.56037 22.0196 9.62867 22.1523C9.92348 22.7119 10.4699 22.9989 11.2573 23.0061C11.7678 23.0096 12.1561 23.4114 12.1561 23.9351C12.1561 24.7099 12.4796 25.2803 13.0692 25.5565C13.1951 25.6139 13.3928 25.6784 13.5079 25.6964C13.7955 25.743 21.881 25.743 22.1686 25.6964C22.6755 25.6139 23.1249 25.2731 23.3478 24.8068C23.4413 24.6095 23.4593 24.5162 23.4844 24.136C23.506 23.7737 23.5276 23.6625 23.5995 23.519C23.7685 23.1926 24.0597 23.0096 24.4156 23.0061C25.2137 22.9989 25.771 22.7011 26.0514 22.1344C26.1197 21.9909 26.1952 21.7793 26.2132 21.6609C26.2599 21.3703 26.2599 13.3065 26.2132 13.016C26.1952 12.8976 26.1233 12.686 26.0514 12.5461C25.771 11.9721 25.2173 11.678 24.4156 11.6708C24.0597 11.6672 23.7685 11.4843 23.5995 11.1579C23.5276 11.0144 23.506 10.9032 23.4844 10.5409C23.4593 10.1606 23.4413 10.0674 23.3478 9.87008C23.1249 9.40376 22.6755 9.06299 22.1686 8.98048C21.899 8.93744 13.6768 8.94102 13.4539 8.98407ZM22.2765 9.65845C22.4778 9.74812 22.6396 9.89519 22.751 10.0817C22.8337 10.2216 22.8481 10.3005 22.8733 10.6772C22.9128 11.3264 23.0818 11.6887 23.4952 12.0008C23.7792 12.2125 24.0129 12.2842 24.5127 12.3129C24.9117 12.338 24.9692 12.3524 25.1238 12.4456C25.3252 12.5712 25.5121 12.8007 25.566 12.9909C25.6164 13.1738 25.6164 21.5031 25.566 21.686C25.5121 21.8761 25.3252 22.1057 25.1238 22.2312C24.9692 22.3245 24.9117 22.3389 24.5127 22.364C24.0129 22.3927 23.7792 22.4644 23.4952 22.676C23.0818 22.9881 22.9128 23.3504 22.8733 23.9997C22.8481 24.3763 22.8337 24.4552 22.751 24.5951C22.6396 24.7817 22.4778 24.9287 22.2765 25.0184C22.1399 25.083 21.917 25.0866 17.8364 25.0866C13.5941 25.0866 13.5366 25.083 13.3784 25.0112C13.2886 24.9718 13.1627 24.8857 13.098 24.8247C12.8895 24.6274 12.832 24.4696 12.7996 24.0104C12.7673 23.5513 12.7493 23.4688 12.6091 23.189C12.4653 22.9128 12.2028 22.6653 11.8864 22.5146C11.642 22.3998 11.5773 22.3855 11.1782 22.3604C10.8402 22.3424 10.7036 22.3173 10.5922 22.2599C10.4016 22.1631 10.2363 21.9873 10.1464 21.7864C10.0745 21.6286 10.0709 21.5712 10.0709 17.3384C10.0709 13.1056 10.0745 13.0483 10.1464 12.8904C10.2363 12.6895 10.4016 12.5138 10.5922 12.4169C10.7 12.3595 10.8402 12.3344 11.1494 12.3129C11.3759 12.2986 11.6132 12.2699 11.6707 12.2519C12.0626 12.13 12.4365 11.8251 12.6091 11.4879C12.7493 11.2081 12.7673 11.1256 12.7996 10.6664C12.832 10.2073 12.8895 10.0494 13.098 9.85215C13.1627 9.79117 13.2886 9.70508 13.3784 9.66562C13.5366 9.59388 13.5941 9.59029 17.8364 9.59029C21.917 9.59029 22.1399 9.59388 22.2765 9.65845Z" fill="#7F2854"/>
<path d="M94.6322 8.52186C94.5754 8.59156 93.7154 9.17087 93.6237 9.20137C93.5495 9.2275 93.8158 9.71535 93.9031 9.71535C94.1302 9.71535 95.2477 9.28848 95.2477 9.20137C95.2477 9.14474 94.9465 8.65689 94.8461 8.548C94.737 8.43475 94.7108 8.43039 94.6322 8.52186Z" fill="#71785B"/>
<path d="M66.2735 9.89393C65.5401 10.0159 64.9071 10.4645 64.5666 11.1005C64.3745 11.4577 64.2959 11.8018 64.2959 12.2635C64.2959 12.9604 64.5054 13.4918 64.9464 13.9143C65.9461 14.8639 67.6268 14.7288 68.3952 13.6399C68.6222 13.3132 68.727 13.0649 68.8143 12.6598C69.0893 11.3183 68.3821 10.1814 67.1117 9.91135C66.7755 9.84166 66.614 9.8373 66.2735 9.89393ZM66.7232 10.8348C67.5221 11.1048 67.8931 12.4116 67.4522 13.4265C67.3911 13.5702 67.3605 13.592 67.151 13.6355C66.5398 13.7619 65.9068 13.4134 65.623 12.7862C65.4746 12.4682 65.4048 11.9368 65.4659 11.5927C65.5314 11.2312 65.706 10.8566 65.8326 10.8043C65.9985 10.7389 66.4918 10.7564 66.7232 10.8348Z" fill="#71785B"/>
<path d="M87.1843 9.88956C86.4946 10.0159 85.8703 10.4558 85.5429 11.0526C85.2766 11.5491 85.1762 12.368 85.3159 12.9081C85.5298 13.7226 86.1628 14.3455 86.9442 14.511C87.4026 14.6069 88.5158 14.4588 89.0615 14.2279C89.1968 14.1713 89.2099 14.1495 89.2361 13.9274C89.2492 13.7967 89.2492 13.5702 89.2361 13.4308L89.2099 13.1695L88.6817 13.3437C87.8959 13.605 87.503 13.5833 87.0315 13.2609C86.822 13.1128 86.5819 12.76 86.4989 12.4638C86.3985 12.1241 86.4072 11.6449 86.5208 11.3531C86.6517 10.9916 86.7128 10.9393 87.0446 10.8827C87.4244 10.8217 87.9439 10.8957 88.5115 11.0918L88.9393 11.2355L89.0135 11.1397C89.0571 11.0874 89.1532 10.887 89.2274 10.6997C89.3802 10.3034 89.402 10.3426 88.9044 10.1509C88.2582 9.89827 87.6558 9.8068 87.1843 9.88956Z" fill="#71785B"/>
<path d="M94.0912 9.8765C93.5761 9.94619 93.0479 10.2032 92.6942 10.5604C92.2315 11.0308 92.0176 11.5622 92.0176 12.2635C92.0176 12.9604 92.2271 13.4918 92.668 13.9143C93.3622 14.5677 94.3837 14.7375 95.2699 14.3325C96.5185 13.7706 96.9987 11.9934 96.2216 10.813C95.7851 10.1596 94.9032 9.7676 94.0912 9.8765ZM94.4448 10.8348C94.7461 10.935 95.0735 11.2747 95.2001 11.6057C95.3965 12.1284 95.4053 12.7731 95.2219 13.3001C95.1259 13.5833 95.0124 13.6486 94.6195 13.653C94.2309 13.6573 93.9079 13.5136 93.6328 13.2174C93.1395 12.686 93.0129 11.7233 93.3491 11.0613C93.4102 10.9437 93.5062 10.8261 93.5586 10.8043C93.7202 10.7389 94.2135 10.7564 94.4448 10.8348Z" fill="#71785B"/>
<path d="M58.2936 9.96797C57.6562 10.1858 57.0712 10.7346 56.9882 11.1876C56.9053 11.6362 57.2153 12.0239 57.905 12.3506C58.9528 12.8471 59.0532 12.8994 59.1841 13.0519C59.2976 13.1782 59.3195 13.2392 59.3107 13.3655C59.2976 13.5136 59.2845 13.5266 59.1492 13.5397C58.9615 13.5571 58.3328 13.4526 57.7129 13.2958L57.2284 13.1738L57.176 13.4178C57.1454 13.5484 57.1192 13.7924 57.1192 13.9622L57.1148 14.2671L57.451 14.363C57.6344 14.4152 58.0229 14.4806 58.311 14.5111C58.944 14.5764 59.0444 14.5546 59.5115 14.241C60.4414 13.6225 60.6641 12.8907 60.114 12.2765C59.9568 12.1023 59.8171 12.0152 59.4111 11.8235C58.4856 11.3923 58.3459 11.3096 58.2586 11.1615C58.2019 11.07 58.1844 10.9829 58.2019 10.9088C58.2324 10.7956 58.2368 10.7956 58.5162 10.8261C58.6734 10.8435 59.075 10.9175 59.4068 10.9959L60.0092 11.1353L60.0747 10.8086C60.114 10.6257 60.1533 10.3992 60.1664 10.299L60.1926 10.1204L59.8433 10.0464C59.5334 9.97669 58.8305 9.88957 58.5991 9.89393C58.5511 9.89393 58.4114 9.92442 58.2936 9.96797Z" fill="#71785B"/>
<path d="M52.4785 9.99409C52.1118 10.0246 51.8062 10.0551 51.7931 10.0638C51.7844 10.0768 51.7669 11.0743 51.7582 12.2809L51.7451 14.4718L51.9372 14.4457C52.042 14.4326 52.317 14.4196 52.544 14.4196H52.9587L52.9326 13.7531C52.9151 13.3916 52.8889 12.7077 52.8758 12.2417L52.8452 11.3923L53.2338 11.9237C53.4477 12.2199 53.8275 12.7382 54.0807 13.078C54.3295 13.4221 54.6439 13.8751 54.7748 14.0885L55.0193 14.4718L55.4559 14.4457C55.696 14.4283 55.9579 14.4021 56.0365 14.3891L56.1762 14.3673V12.7644C56.1762 11.8845 56.1893 10.9001 56.2067 10.5734L56.2329 9.97667L55.6261 10.0028C55.2943 10.0202 55.0149 10.0376 55.0062 10.042C54.9975 10.0507 55.0149 10.5124 55.0411 11.0743C55.0673 11.6319 55.0848 12.233 55.0761 12.4115L55.063 12.7295L54.5085 11.9977C53.8624 11.1353 53.4913 10.5865 53.2949 10.2032C53.2207 10.0551 53.1552 9.93746 53.1508 9.93746C53.1465 9.94182 52.8452 9.96795 52.4785 9.99409Z" fill="#71785B"/>
<path d="M74.9656 9.98976L74.2628 10.029L74.2104 11.388C74.1842 12.1328 74.1405 13.1216 74.1143 13.5833C74.0882 14.045 74.0707 14.4283 74.0794 14.437C74.0882 14.4457 74.3457 14.4414 74.6469 14.4283L75.1926 14.4109L75.1752 12.8776C75.1664 12.037 75.1708 11.3618 75.1883 11.3793C75.2363 11.4228 76.2535 13.6007 76.4849 14.1452L76.6158 14.4632H76.8603L77.1091 14.4588L77.8513 12.9517L78.5934 11.4446L78.6196 11.7495C78.6371 11.915 78.6633 12.5902 78.6807 13.2522L78.7113 14.4501L79.2657 14.4283C79.5669 14.4196 79.8245 14.4022 79.8332 14.3935C79.842 14.3847 79.8201 13.8316 79.7809 13.1695C79.7416 12.503 79.6979 11.5099 79.6804 10.9655L79.6543 9.97234L79.5364 9.99412C79.4753 10.0072 79.1609 10.029 78.8466 10.0464C78.3053 10.0725 78.266 10.0812 78.2442 10.1683C78.2005 10.3121 77.0305 12.6773 77 12.6773C76.9345 12.6773 75.7776 10.2555 75.7776 10.1161C75.7776 10.0987 75.7514 10.0507 75.7252 10.0159C75.6772 9.96363 75.5593 9.95927 74.9656 9.98976Z" fill="#71785B"/>
<path d="M98.0422 9.99847C97.6712 10.029 97.3612 10.0594 97.3568 10.0594C97.3481 10.0638 97.3438 11.0569 97.3438 12.2678V14.4762L97.5096 14.4457C97.597 14.4327 97.8676 14.4196 98.1077 14.4196H98.5443L98.4919 13.1041C98.4613 12.3767 98.4395 11.6972 98.4482 11.5927L98.457 11.3967L98.5836 11.5927C98.6534 11.6972 98.9852 12.1546 99.317 12.6032C99.8278 13.2914 100.36 14.0668 100.557 14.3978C100.596 14.4719 100.64 14.4762 101.159 14.4327C101.465 14.4065 101.718 14.3804 101.727 14.3717C101.736 14.363 101.753 13.3698 101.766 12.1676L101.792 9.97669L101.194 10.0028C100.867 10.0202 100.592 10.0377 100.583 10.042C100.579 10.0464 100.596 10.4384 100.622 10.9175C100.644 11.3923 100.662 11.9934 100.653 12.2504L100.64 12.7208L100.046 11.9237C99.4087 11.0743 99.042 10.5299 98.8542 10.1596C98.7931 10.0377 98.7364 9.93749 98.7276 9.93749C98.7233 9.94184 98.4133 9.97233 98.0422 9.99847Z" fill="#71785B"/>
<path d="M37.9282 10.4645V10.9349H38.5438H39.1549L39.1419 12.7034L39.1288 14.4718L39.3208 14.4457C39.4256 14.4326 39.7094 14.4196 39.9495 14.4196H40.3817L40.3555 14.2323C40.3162 13.9709 40.3162 11.536 40.3511 11.205L40.386 10.9349H41.0321H41.6826V10.4645V9.99844L39.8054 9.99409H37.9282V10.4645Z" fill="#71785B"/>
<path d="M43.1843 10.0072L42.2632 10.0203L42.2675 12.2461L42.2719 14.4719L42.464 14.4457C42.5688 14.4327 42.8394 14.4196 43.0708 14.4196H43.4812L43.4681 13.6443C43.4594 13.2218 43.4637 12.8646 43.4855 12.8559C43.503 12.8472 43.6209 12.8559 43.7475 12.8689C43.9701 12.8994 43.9789 12.9081 44.1055 13.1259C44.315 13.5005 45.0004 14.5067 45.0441 14.5067C45.0702 14.5067 45.3104 14.3935 45.5854 14.2584L46.0831 14.0145L45.8561 13.7053C45.5592 13.3002 45.175 12.7339 45.175 12.6947C45.175 12.6773 45.2842 12.551 45.4151 12.4116C45.5592 12.2635 45.7164 12.037 45.7993 11.8628C45.9172 11.6101 45.9346 11.5186 45.9346 11.2399C45.9346 10.8479 45.8386 10.6301 45.5636 10.3949C45.3235 10.1901 45.0004 10.0769 44.5289 10.0203C44.3194 9.99848 44.1404 9.98106 44.1273 9.98541C44.1142 9.99412 43.6907 10.0028 43.1843 10.0072ZM44.4198 10.8348C44.6686 10.948 44.7647 11.2007 44.6904 11.5491C44.6642 11.658 44.5857 11.8192 44.5158 11.9063C44.4067 12.037 44.3543 12.0675 44.2277 12.0675C44.0181 12.0675 43.503 11.9804 43.455 11.9368C43.4375 11.915 43.4332 11.645 43.4506 11.3313L43.4812 10.7651L43.7082 10.7477C44.0094 10.7303 44.2495 10.7564 44.4198 10.8348Z" fill="#71785B"/>
<path d="M48.2526 10.1814C48.1435 10.4732 47.1219 12.8558 46.7509 13.6965C46.5806 14.0798 46.4453 14.3934 46.454 14.3978C46.4584 14.4065 46.7203 14.4196 47.039 14.4326L47.6153 14.4544L47.7724 13.9579L47.9296 13.4613H48.7765C49.5405 13.4613 49.6278 13.47 49.6627 13.5353C49.6845 13.5789 49.7588 13.8054 49.8286 14.0406L49.9552 14.4675L50.5664 14.437C50.9025 14.4196 51.1819 14.4065 51.1863 14.4021C51.1907 14.3978 51.0684 14.1016 50.9156 13.7444C50.7628 13.3829 50.3525 12.3898 50.012 11.536L49.3877 9.97667H48.8594H48.3312L48.2526 10.1814ZM49.1214 12.0239C49.2567 12.3724 49.3659 12.6685 49.3659 12.686C49.3659 12.7077 49.1126 12.7208 48.7983 12.7208C48.4884 12.7208 48.2308 12.7034 48.2308 12.6816C48.2308 12.6424 48.7416 11.34 48.7852 11.2703C48.8027 11.2442 48.8289 11.2616 48.8463 11.3095C48.8638 11.3531 48.986 11.6754 49.1214 12.0239Z" fill="#71785B"/>
<path d="M62.2352 10.0072L61.1133 10.0203L61.1395 12.2112C61.1526 13.4134 61.1657 14.4022 61.17 14.4022C61.17 14.4065 61.4276 14.4196 61.7376 14.4327L62.2964 14.4545L62.2833 13.5659L62.2658 12.6773H62.9556H63.6409V12.3811C63.6409 12.2199 63.654 12.0152 63.6715 11.9194L63.6977 11.7495L62.9948 11.7713L62.2876 11.7931V11.3401V10.8914H63.0909C64.0251 10.8914 63.9465 10.9437 63.9465 10.3339V9.97671L63.654 9.98542C63.4882 9.99413 62.8508 10.0028 62.2352 10.0072Z" fill="#71785B"/>
<path d="M70.552 10.0072L69.6309 10.0202V12.2461V14.4719L69.8273 14.4457C69.9364 14.4327 70.2115 14.4196 70.4385 14.4196H70.8489L70.8183 13.6138L70.7877 12.8123L70.958 12.8384C71.2767 12.8907 71.3465 12.9212 71.4295 13.0737C71.4775 13.1564 71.7089 13.5179 71.949 13.8838L72.3855 14.5415L72.905 14.2846C73.2587 14.106 73.4158 14.0101 73.394 13.9709C73.3765 13.9405 73.2499 13.7619 73.1146 13.5702C72.9793 13.3786 72.7872 13.1041 72.6868 12.956L72.5078 12.6903L72.7653 12.4246C73.119 12.0544 73.263 11.7451 73.2805 11.3226C73.3067 10.7694 73.0797 10.3948 72.5951 10.1858C72.1978 10.0159 71.8922 9.98976 70.552 10.0072ZM71.77 10.8304C71.8311 10.8653 71.9272 10.9437 71.9795 11.009C72.1891 11.2747 71.9926 11.976 71.687 12.05C71.6216 12.0675 71.3989 12.0544 71.1937 12.0196L70.8227 11.9586L70.8096 11.6319C70.8008 11.4533 70.8096 11.1832 70.8227 11.0351L70.8489 10.7651L71.054 10.7477C71.3334 10.7259 71.6303 10.7607 71.77 10.8304Z" fill="#71785B"/>
<path d="M82.1514 10.3121C81.8545 11.0351 81.1429 12.6947 80.7762 13.5179C80.5667 13.9927 80.4008 14.3847 80.4095 14.3935C80.4182 14.4022 80.6845 14.4196 80.9945 14.4283L81.5664 14.4501L81.7148 13.9666L81.8676 13.4831H82.7364H83.6007L83.7579 13.9797L83.9194 14.4762L84.308 14.4457C84.5219 14.4327 84.8013 14.4196 84.9235 14.4196H85.1549L84.8711 13.7532C84.714 13.3916 84.3036 12.3941 83.9631 11.5448L83.3388 9.99847L82.8149 9.9854L82.2911 9.97233L82.1514 10.3121ZM83.0638 11.9978C83.2078 12.3811 83.3213 12.6991 83.3126 12.7078C83.3039 12.7165 83.0419 12.7165 82.732 12.7121L82.1601 12.6991L82.4482 11.9673C82.6054 11.5665 82.7495 11.2529 82.7669 11.2704C82.7844 11.2878 82.9197 11.6188 83.0638 11.9978Z" fill="#71785B"/>
<path d="M90.4416 10.0072L90.1099 10.0246L90.1142 12.246L90.1186 14.4718L90.3107 14.4457C90.4155 14.4326 90.6861 14.4196 90.9175 14.4196H91.3322L91.2973 13.8402C91.258 13.1128 91.258 11.1876 91.2973 10.4994L91.3322 9.97667L91.0528 9.98538C90.9 9.98973 90.625 10.0028 90.4416 10.0072Z" fill="#71785B"/>
<path d="M62.5716 16.9939C61.3885 17.0897 60.1967 17.5122 59.2101 18.183C58.6863 18.5358 57.9659 19.2589 57.6254 19.7728C56.8265 20.9663 56.438 22.3297 56.438 23.937C56.438 25.4876 56.892 26.7682 57.8437 27.8964C58.3981 28.5541 59.0311 29.0463 59.8213 29.4296C60.642 29.826 61.31 30.0133 62.2442 30.1004C63.4273 30.2137 65.3394 29.961 66.8935 29.495C67.4261 29.3338 68.3167 29.0071 68.4259 28.9331C68.4608 28.9113 68.4913 28.0053 68.5306 25.9493C68.5612 24.329 68.5786 22.9918 68.5699 22.9874C68.5568 22.9743 65.5489 23.1137 65.4354 23.1268C65.4267 23.1312 65.4267 24.0851 65.4354 25.2524L65.4529 27.378L65.2346 27.4347C64.8941 27.5218 64.1476 27.5479 63.7067 27.4913C62.6371 27.3476 61.8251 26.9947 61.1659 26.3806C60.5809 25.8361 60.1924 25.2306 59.9348 24.4597C59.5899 23.4273 59.5768 22.0553 59.8999 21.1057C60.1094 20.5003 60.4281 19.9863 60.642 19.9079C61.1877 19.7206 62.6022 19.6727 63.4928 19.8208C64.4488 19.9776 65.6406 20.313 66.6927 20.7311C66.9416 20.8269 67.1511 20.9097 67.1555 20.9097C67.2035 20.9097 67.6095 20.1866 67.8714 19.6465C68.1508 19.0629 68.4433 18.3224 68.4433 18.1917C68.4433 18.1264 67.5047 17.7866 66.6316 17.534C65.0818 17.0897 63.6805 16.9024 62.5716 16.9939Z" fill="#71785B"/>
<path d="M89.9087 17.3031C89.3063 18.8363 87.1278 23.9283 85.4864 27.6568C84.9931 28.7675 84.6002 29.6822 84.6045 29.691C84.6133 29.6953 85.3554 29.7302 86.2547 29.765C87.4814 29.8129 87.8962 29.8173 87.9136 29.7781C87.9224 29.7519 88.1188 29.1508 88.3502 28.4452L88.7693 27.1602L91.1747 27.1472L93.5801 27.1385L93.6282 27.2779C94.2699 29.3207 94.4271 29.8173 94.4358 29.826C94.4489 29.8434 97.9152 29.765 97.9326 29.7476C97.9414 29.7345 97.6925 29.1291 97.3826 28.4016C96.3523 26.006 94.2132 20.7485 93.0563 17.7735L92.8598 17.2726L91.3974 17.2596C90.2492 17.2508 89.9262 17.2596 89.9087 17.3031ZM92.0347 22.8872C92.4582 23.9849 92.8031 24.9039 92.8031 24.9214C92.8031 24.9432 92.074 24.9606 91.1834 24.9606C89.9043 24.9606 89.5682 24.9475 89.5856 24.9039C89.6468 24.7602 90.9477 21.4542 91.0656 21.158C91.1398 20.9663 91.214 20.8313 91.2358 20.8531C91.2533 20.8705 91.6156 21.7852 92.0347 22.8872Z" fill="#71785B"/>
<path d="M52.8147 17.3684C52.0595 17.4033 51.4352 17.4338 51.4308 17.4425C51.4265 17.4468 51.4439 18.8102 51.4745 20.4741C51.5094 22.4211 51.5182 24.6295 51.4963 26.6593C51.4789 28.3929 51.4701 29.8172 51.4745 29.8216C51.492 29.839 54.8447 29.6996 54.8622 29.6822C54.8709 29.6735 54.836 28.2579 54.7836 26.5417L54.6876 23.4142L54.7749 20.6265C54.8273 19.0933 54.8665 17.7169 54.8665 17.5644V17.2944L54.5304 17.2987C54.3427 17.3031 53.57 17.3336 52.8147 17.3684Z" fill="#71785B"/>
<path d="M72.1105 17.3685C71.3553 17.4033 70.731 17.4338 70.7266 17.4381C70.7223 17.4469 70.7441 18.8015 70.7747 20.4523C70.8096 22.4473 70.8139 24.5294 70.7921 26.6376C70.7747 28.3842 70.7659 29.8173 70.7703 29.8216C70.7877 29.8391 74.1405 29.6997 74.158 29.6822C74.1667 29.6735 74.1318 28.2579 74.0794 26.5417L73.9833 23.4143L74.075 20.6701C74.123 19.1587 74.1623 17.7823 74.1623 17.608V17.2944L73.8262 17.2988C73.6385 17.3031 72.8658 17.3336 72.1105 17.3685Z" fill="#71785B"/>
<path d="M75.367 17.4948C75.3539 17.608 75.3408 18.2265 75.3408 18.8755V20.0516L77.0216 20.0211L78.7023 19.9863V20.2868C78.7023 20.448 78.7241 21.3279 78.746 22.2382C78.7765 23.4143 78.7722 24.7515 78.7285 26.8553C78.6979 28.4844 78.6761 29.8216 78.6761 29.826C78.6848 29.839 82.1293 29.6997 82.1424 29.6866C82.1511 29.6822 82.1206 28.3929 82.0813 26.8292C82.0114 24.0938 82.0114 23.9021 82.0856 22.0117C82.1293 20.9271 82.1773 20.0255 82.1904 20.0037C82.2035 19.9863 83.0199 19.9863 83.9978 20.008C84.9756 20.0298 85.7876 20.0385 85.8007 20.0255C85.8182 20.008 85.9055 17.3336 85.888 17.3118C85.888 17.3075 84.7661 17.3292 83.3953 17.3597C81.3522 17.4033 80.4878 17.4033 78.5495 17.3554C77.2529 17.3249 76.0131 17.2988 75.7948 17.2944H75.3976L75.367 17.4948Z" fill="#71785B"/>
<path d="M100.443 17.3684C99.6875 17.4033 99.0632 17.4381 99.0545 17.4468C99.0458 17.4556 99.0632 18.7797 99.0894 20.3913C99.12 22.0553 99.1375 24.7036 99.1244 26.5374L99.1025 29.7606L100.569 29.7301C101.377 29.7127 102.045 29.6909 102.058 29.6866C102.08 29.6735 105.35 29.7693 106.341 29.8129L106.895 29.839L106.921 28.7588C106.939 28.1664 106.961 27.561 106.974 27.4085L107 27.1385H104.725H102.451L102.433 27.0383C102.42 26.986 102.39 26.1366 102.359 25.1566C102.316 23.6277 102.316 23.0266 102.381 20.975C102.42 19.6552 102.464 18.2919 102.477 17.9347L102.508 17.2944L102.163 17.2987C101.975 17.3031 101.198 17.3336 100.443 17.3684Z" fill="#71785B"/>
<path d="M38.0414 18.5445C38.1331 22.652 38.1331 22.9438 38.0065 26.2237C37.941 27.9617 37.8843 29.4732 37.8843 29.5821V29.7824L38.574 29.8129C38.9495 29.8303 39.6916 29.8695 40.2199 29.9044C42.5074 30.0481 43.5595 30.0307 44.5418 29.8347C47.8727 29.1639 49.8809 26.4546 49.7455 22.8262C49.715 22.077 49.6146 21.5064 49.4094 20.9445C48.6847 18.967 46.873 17.8214 43.8651 17.4425C43.3893 17.3815 42.7737 17.3641 40.6433 17.351L38.0152 17.3292L38.0414 18.5445ZM43.2059 19.6901C44.5112 19.8599 45.4236 20.4523 45.9126 21.4542C46.4888 22.6172 46.4888 24.3638 45.9126 26.1061C45.8165 26.398 45.6768 26.7639 45.5982 26.9207L45.4585 27.2038L45.1966 27.2561C44.3453 27.4259 43.9524 27.4608 43.0357 27.4608C42.2324 27.4608 41.5906 27.4085 41.5208 27.3388C41.5121 27.3301 41.4728 26.472 41.4379 25.4353C41.3811 23.9021 41.3767 23.24 41.416 21.9333C41.4422 21.0447 41.464 20.1823 41.464 20.008V19.6944L41.6736 19.677C42.1058 19.6465 42.896 19.6509 43.2059 19.6901Z" fill="#71785B"/>
</svg>
